<svg xmlns="http://www.w3.org/2000/svg" viewBox="0 0 291.72103 333.27997"><defs><style>.cls-1{fill:#26a9e0;}.cls-2{fill:#fff;}.cls-3{fill:#d0d2d3;}</style></defs><g id="Layer_2" data-name="Layer 2"><g id="sky1"><path class="cls-1" d="M291.721,0V317.92l-36.54,14.32a15.01316,15.01316,0,0,1-12.15-27.43l-3.45,1.35-44.99,17.64a15.01751,15.01751,0,0,1-14.34-26.11l-40.54,15.89a15.01569,15.01569,0,0,1-10.96-27.96l9.88995-3.88c-.34.03-.67.04-1,.04a15.0158,15.0158,0,0,1-7.32995-28.12l-16.13,6.32a15.02027,15.02027,0,0,1-14.99-25.61l-35.73,14.01a15.01761,15.01761,0,0,1-13.45-26.71L20.50106,233.24a15.0157,15.0157,0,0,1-10.96-27.96l10.4-4.08a14.26536,14.26536,0,0,1-14.81994-8.98l-.53-1.38a14.27336,14.27336,0,0,1,8.08-18.5l40.65-15.94a13.8292,13.8292,0,0,1-13.71-8.76l-.86-2.2a13.83821,13.83821,0,0,1,7.83-17.93l112.91-44.26,16.39-6.43a13.82332,13.82332,0,0,1-13.37994-8.77l-.86005-2.2a13.83833,13.83833,0,0,1,7.83-17.93L282.381,3.66Z"/></g><g id="cloud2-primary"><path class="cls-2" d="M291.721,92.34v94.3l-.36-.03c-.94-.09-1.89-.13-2.85-.13a31.28794,31.28794,0,0,0-15.01,3.8l-.12006.06a30.10722,30.10722,0,0,0-3.93,2.56c-.73.55-1.44,1.14-2.12,1.76-.09.09-.2.18-.3.28a31.61471,31.61471,0,0,0-6,7.64,28.94673,28.94673,0,0,0-4.38-.68006l-.45-.03c-.67-.05-1.35-.07-2.03-.07a31.07215,31.07215,0,0,0-20.99,8.17,30.96465,30.96465,0,0,0-9.87,19.32,17.90958,17.90958,0,0,0-5.26-.05h-.01a18.50933,18.50933,0,0,0-10.7,5.3,18.48778,18.48778,0,0,0-5.12-7.41,18.41925,18.41925,0,0,0-9.42-4.4h-.01a19.45488,19.45488,0,0,0-2.02-.19c-.24-.01-.48-.01-.73-.01a18.02086,18.02086,0,0,0-4.05.45,18.49217,18.49217,0,0,0-12.24,9.31,17.62007,17.62007,0,0,0-1.09,2.47s-.88-.5-1.31-.77a23.43664,23.43664,0,0,1-8.44-9.17,26.89833,26.89833,0,0,1-33.3-15.01A28.84634,28.84634,0,0,1,79.691,200.17a19.40172,19.40172,0,1,1-3.84-38.42,19.16906,19.16906,0,0,1,6.8,1.23,14.62,14.62,0,0,1,6.56-10.94,18.45533,18.45533,0,1,1,30.23-21.11h.01c.16,0,.31,0,.47.01a14.65492,14.65492,0,0,1,29.17.01,26.83505,26.83505,0,0,1,4.7.53,20.893,20.893,0,0,1,12.02-10.66,23.56594,23.56594,0,0,1-.57-5.21,24.16837,24.16837,0,0,1,24.17-24.17c.17,0,.35,0,.52.01a22.12533,22.12533,0,0,1,39.4-8.41,20.62535,20.62535,0,0,1,7.06-1.23,20.90763,20.90763,0,0,1,20.28,15.85,28.88472,28.88472,0,0,1,18.51,18.81c-.02-.29-.02-.57-.02-.86A24.61533,24.61533,0,0,1,291.721,92.34Z"/></g><g id="cloud2-secondary"><path class="cls-3" d="M160.881,148.56a11.60308,11.60308,0,0,0-3.75994,7.17,8.98041,8.98041,0,0,0-3.08-.53,9.32857,9.32857,0,0,0-7.11,3.27,6.69892,6.69892,0,0,0-6.52.45,10.01018,10.01018,0,0,0-18.41,2.45,12.51939,12.51939,0,0,0-8.94-.24,6.89126,6.89126,0,0,1,5.15-11.48,5.59561,5.59561,0,0,1,1.09.1,9.39039,9.39039,0,0,1-.07-1.19,11.0687,11.0687,0,0,1,19.06-7.67,13.78188,13.78188,0,0,1,22.59,7.67Z"/><path class="cls-3" d="M248.62106,126.11a8.31049,8.31049,0,0,0-4.49006,4.96,12.13576,12.13576,0,0,0-5.25-1.18c-.32995,0-.65.01-.97.04a11.61985,11.61985,0,0,0-20.27,5.44,8.289,8.289,0,0,0-11.6,7.6,8.43816,8.43816,0,0,0,.63,3.19,9.1192,9.1192,0,0,1-4.83-7.88995,9.21709,9.21709,0,0,1-3.53.69,9.31269,9.31269,0,0,1-5.8-2.01,5.85875,5.85875,0,1,1-2.88-11.04,9.42755,9.42755,0,0,1,8.02-5.75,16.09407,16.09407,0,0,1,31.41-6.87,5.86912,5.86912,0,0,1,9.99,4.17,5.48488,5.48488,0,0,1-.03.58A16.14334,16.14334,0,0,1,248.62106,126.11Z"/><path class="cls-3" d="M291.721,154.64v32l-.36-.03c-.94-.09-1.89-.13-2.85-.13a31.28794,31.28794,0,0,0-15.01,3.8l-.12006.06a30.10722,30.10722,0,0,0-3.93,2.56c-.73.55-1.44,1.14-2.12,1.76-.09.09-.2.18-.3.28a31.61471,31.61471,0,0,0-6,7.64,28.94673,28.94673,0,0,0-4.38-.68006l-.45-.03c-.67-.05-1.35-.07-2.03-.07a31.07215,31.07215,0,0,0-20.99,8.17,30.96465,30.96465,0,0,0-9.87,19.32,17.90958,17.90958,0,0,0-5.26-.05h-.01a18.50933,18.50933,0,0,0-10.7,5.3,18.48778,18.48778,0,0,0-5.12-7.41,18.41925,18.41925,0,0,0-9.42-4.4h-.01a19.45488,19.45488,0,0,0-2.02-.19c-.24-.01-.48-.01-.73-.01a18.02086,18.02086,0,0,0-4.05.45,18.49217,18.49217,0,0,0-12.24,9.31,17.62007,17.62007,0,0,0-1.09,2.47s-.88-.5-1.31-.77a23.43664,23.43664,0,0,1-8.44-9.17,26.89833,26.89833,0,0,1-33.3-15.01A28.84634,28.84634,0,0,1,79.691,200.17a19.43534,19.43534,0,0,1-21.3-10.55,10.56727,10.56727,0,0,1,4.86005-1.63,9.99957,9.99957,0,0,0,14.83-6.05,6.745,6.745,0,0,0,4.72-3.06,15.34056,15.34056,0,0,1,6.76,4.76,6.54633,6.54633,0,0,1,1.88995-.28,6.63425,6.63425,0,0,1,6.64,6.63,6.50237,6.50237,0,0,1-.84,3.23,14.04648,14.04648,0,0,1,8.59,1.78,16.25823,16.25823,0,0,1,11.76-5.01c.21,0,.42,0,.62.01a14.969,14.969,0,0,1,.86-4.75v-.01a12.37438,12.37438,0,0,0,5.78-2.48,10.02862,10.02862,0,0,0,11.48-7.54,15.28341,15.28341,0,0,1,8.87,5.1,6.73035,6.73035,0,0,0-1.84,4.55,9.22773,9.22773,0,0,0-13.63,5.18c-.13-.01-.26-.02-.4-.02a5.27,5.27,0,1,0,0,10.54,5.19379,5.19379,0,0,0,3.06-.98,9.118,9.118,0,0,0,6.15,2.36,8.044,8.044,0,0,0,1.3-.1,5.28578,5.28578,0,0,0,7.78,6.51,11.19507,11.19507,0,0,0,18.12006-8.61,7.00977,7.00977,0,0,0,2,.29,7.30213,7.30213,0,0,0,7.3-7.3,7.17371,7.17371,0,0,0-.79-3.3,11.33111,11.33111,0,0,1,7.63,10.71c0,.36005-.01995.72-.05,1.08a8.624,8.624,0,0,1,1.53-.14,8.43572,8.43572,0,0,1,7.16,3.95,24.64288,24.64288,0,0,1,7.76-6.89,1.01539,1.01539,0,0,1,.03-.17,12.25236,12.25236,0,0,0,20.05005-3.63,9.01863,9.01863,0,0,0,9.63995-1.14,5.80392,5.80392,0,1,0,4.41-9.57,5.42893,5.42893,0,0,0-1.4.18,9.05291,9.05291,0,0,0-8.72-6.65,8.95927,8.95927,0,0,0-3.52.71,5.7947,5.7947,0,0,0-10.77-.67,8.69313,8.69313,0,0,0-.88995-.04,12.26948,12.26948,0,0,0-11.97,9.58,11.58736,11.58736,0,0,1,6.27-13.98,11.56386,11.56386,0,0,1,15.25-15.76,9.092,9.092,0,0,0-.39,2.63,8.97517,8.97517,0,0,0,12.83,8.1,5.80116,5.80116,0,0,0,11.55-.2,11.545,11.545,0,0,1,9.59,7.82,8.10323,8.10323,0,0,1,9.76,2.44,19.26054,19.26054,0,0,1,9.04-4.54,18.25136,18.25136,0,0,1,1.13-1.77,11.19815,11.19815,0,0,0,10.28-14.72,8.61133,8.61133,0,0,0,11.26-2.13Z"/></g><g id="cloud-primary"><path class="cls-2" d="M291.721,186.64v87.55a29.18188,29.18188,0,0,1-12.15.08,29.27042,29.27042,0,0,1-55.75995-.66c-.21.23-.43006.46-.66.68a18.60449,18.60449,0,0,1-27.44-1.75,18.59335,18.59335,0,0,1-22.16-8.37.035.035,0,0,0-.01-.02,18.15686,18.15686,0,0,1-2.24-6.38995,9.32169,9.32169,0,0,1-1.13.59,10.90981,10.90981,0,0,1-4.61,1.01,11.02159,11.02159,0,0,1-10.24-6.94,11.46826,11.46826,0,0,1-1.79-6.19,12.40793,12.40793,0,0,1,.19-2.13,11.60507,11.60507,0,0,1,11.38-9.45c.27,0,.53.01.79.03h.02a11.556,11.556,0,0,1,6.12,2.27,18.20333,18.20333,0,0,1,1.72-4.66,18.49217,18.49217,0,0,1,12.24-9.31,18.02086,18.02086,0,0,1,4.05-.45c.25,0,.49,0,.73.01a19.45488,19.45488,0,0,1,2.02.19h.01a18.41925,18.41925,0,0,1,9.42,4.4,18.48778,18.48778,0,0,1,5.12,7.41,18.50933,18.50933,0,0,1,10.7-5.3h.01a17.90958,17.90958,0,0,1,5.26.05,31.08267,31.08267,0,0,1,22.86-26.44,30.631,30.631,0,0,1,8-1.05c.68,0,1.36.02,2.03.07l.45.03a28.94673,28.94673,0,0,1,4.38.68006,31.61471,31.61471,0,0,1,6-7.64c.1-.1.21-.19.3-.28.68-.62,1.39-1.21,2.12-1.76a30.10722,30.10722,0,0,1,3.93-2.56l.12006-.06a31.28794,31.28794,0,0,1,15.01-3.8c.96,0,1.91.04,2.85.13Z"/></g><g id="cloud-secondary"><path class="cls-3" d="M282.25106,223.53a5.403,5.403,0,0,1-5.4,5.4,4.39743,4.39743,0,0,1-1.03-.11,7.60776,7.60776,0,0,0-4.8-1.7,7.18164,7.18164,0,0,0-1.81.22,7.638,7.638,0,0,0-12.96,5.38,6.77871,6.77871,0,0,0-2.81006-.6,6.89884,6.89884,0,0,0-6.88995,6.9,6.25172,6.25172,0,0,0,.19,1.57,9.64557,9.64557,0,0,1-6.97-5.77,5.28361,5.28361,0,0,1-2.41.57,5.4,5.4,0,1,1,3.35-9.64,9.6334,9.6334,0,0,1,12.14-3.27,11.91,11.91,0,0,1,22.05-3.99,5.28412,5.28412,0,0,1,1.95-.37A5.40515,5.40515,0,0,1,282.25106,223.53Z"/><path class="cls-3" d="M279.281,255.34a2.215,2.215,0,0,0,2.22,2.22,2.32892,2.32892,0,0,0,.76-.13,3.78317,3.78317,0,0,0,3.15,1.69,3.73177,3.73177,0,0,0,1.01-.14,1.79331,1.79331,0,0,0,1.26.51,1.50271,1.50271,0,0,0,.56-.1,6.31148,6.31148,0,0,0,3.48,1.05v13.75a29.18188,29.18188,0,0,1-12.15.08,29.27042,29.27042,0,0,1-55.75995-.66c-.21.23-.43006.46-.66.68a18.60449,18.60449,0,0,1-27.44-1.75,18.59335,18.59335,0,0,1-22.16-8.37.035.035,0,0,0-.01-.02,18.15686,18.15686,0,0,1-2.24-6.38995,9.32169,9.32169,0,0,1-1.13.59,10.90981,10.90981,0,0,1-4.61,1.01,11.02159,11.02159,0,0,1-10.24-6.94,11.46826,11.46826,0,0,1-1.79-6.19,12.40793,12.40793,0,0,1,.19-2.13,10.98331,10.98331,0,0,1,2.15-1.05,11.65985,11.65985,0,0,1,4.11-.74,11.78355,11.78355,0,0,1,11.15,7.95,6.39617,6.39617,0,0,1,2.06-.33,6.59873,6.59873,0,0,1,4.13,1.44,16.77285,16.77285,0,0,1,25.78-1.58,1.80085,1.80085,0,0,0-.6.71,2.16118,2.16118,0,0,0-1.07-.28,2.21074,2.21074,0,0,0-2.21,2.21,1.61765,1.61765,0,0,0,.01.22,2.961,2.961,0,0,0-.52-.05,3.035,3.035,0,1,0,0,6.07,2.3186,2.3186,0,0,0,.46-.04,4.62706,4.62706,0,0,0,8.36,1.35,1.56945,1.56945,0,0,0,.23-.09,4.80828,4.80828,0,0,0,6.63-.44,1.95638,1.95638,0,0,0,3.24-1.48,1.85252,1.85252,0,0,0-.12-.67,5.97294,5.97294,0,0,0,2.58-1.31,2.91966,2.91966,0,0,0,.73.09,3.18052,3.18052,0,0,0,3.18-3.11005,3.37083,3.37083,0,0,0,1.93-3.05,3.40506,3.40506,0,0,0-5.46-2.72,5.58015,5.58015,0,0,0-1.57-1.15,16.80034,16.80034,0,0,1,20.54,5.2,24.83231,24.83231,0,0,1,9.66,2.35,9.34815,9.34815,0,0,0-2.09,2.5,2.32761,2.32761,0,0,0-.92-.19,2.28114,2.28114,0,0,0-2.29,2.28,2.2509,2.2509,0,0,0,.12.74,1.619,1.619,0,0,0-.22-.01,7.49829,7.49829,0,0,0-6.29,3.41,4.47617,4.47617,0,0,0-2.04-.48,4.80694,4.80694,0,0,0-1.01.11,2.33682,2.33682,0,0,0-1.74-.79,2.28759,2.28759,0,0,0-2.28,2.29,2.32765,2.32765,0,0,0,.66,1.61,4.39582,4.39582,0,0,0-.21,1.36,4.57931,4.57931,0,0,0,4.58,4.58,4.47617,4.47617,0,0,0,2.04-.48,7.49311,7.49311,0,0,0,11.39,1.4,4.38242,4.38242,0,0,0,8.34-1.88,1.61765,1.61765,0,0,0-.01-.22,9.32138,9.32138,0,0,0,5.83-4.09,4.57635,4.57635,0,0,0,.52-9.09,9.34359,9.34359,0,0,0-5.71-4.85,16.74135,16.74135,0,0,1,16.57.68,20.19806,20.19806,0,0,1-.92-4.69,3.94681,3.94681,0,0,0,2.95-2.04,6.94021,6.94021,0,0,0,1.51995.16,7.362,7.362,0,0,0,1.76-14.51,20.45981,20.45981,0,0,1,12.07-5.62v20.75a2.57016,2.57016,0,0,0-1.52,1.49,6.316,6.316,0,0,0-4.26,3.58,3.07846,3.07846,0,0,0-.53-.04,3.67746,3.67746,0,0,0-.89.11,1.74672,1.74672,0,0,0-1.07-.36,1.8117,1.8117,0,0,0-1.82,1.81v.01a.56964.56964,0,0,0-.12994-.01A2.215,2.215,0,0,0,279.281,255.34Z"/></g></g></svg>