<svg width="357" height="722" viewBox="0 0 357 722" fill="none" xmlns="http://www.w3.org/2000/svg">
<g clip-path="url(#clip0_717_465)">
<path d="M-275 722V33.252L-195.837 2.25129C-188.03 -0.824027 -179.334 -0.7644 -171.569 2.41764C-163.804 5.59969 -157.571 11.6578 -154.172 19.3257C-150.773 26.9935 -150.472 35.6773 -153.331 43.5619C-156.19 51.4465 -161.989 57.9215 -169.515 61.6332L-162.041 58.7106L-64.5721 20.5227C-57.2105 17.6348 -49.0482 17.5253 -41.6116 20.2146C-34.1751 22.9039 -27.9734 28.2078 -24.1663 35.1346C-20.3591 42.0614 -19.2073 50.1367 -20.9261 57.8506C-22.6449 65.5644 -27.1166 72.3886 -33.5052 77.0469L54.3229 42.6475C62.3538 39.5092 71.3031 39.6856 79.2039 43.1379C87.1048 46.5901 93.3106 53.0358 96.4577 61.0582C99.6047 69.0807 99.4354 78.0236 95.9869 85.9213C92.5385 93.8191 86.093 100.026 78.0672 103.177L56.6411 111.576C57.3777 111.511 58.0926 111.49 58.8076 111.49C66.006 111.491 73.0009 113.877 78.6966 118.276C84.3923 122.675 88.4671 128.837 90.2828 135.797C92.0986 142.758 91.5526 150.124 88.7305 156.741C85.9084 163.358 80.9696 168.853 74.6875 172.365L109.632 158.684C116.851 155.859 124.842 155.702 132.166 158.241C139.49 160.781 145.666 165.85 149.583 172.535C153.499 179.221 154.898 187.084 153.527 194.709C152.157 202.334 148.107 209.219 142.108 214.125L219.515 183.796C227.062 180.841 235.441 180.807 243.011 183.702C250.581 186.596 256.798 192.21 260.443 199.444C264.089 206.678 264.9 215.012 262.72 222.812C260.539 230.613 255.523 237.32 248.654 241.619L312.586 216.572C316.564 215.007 320.813 214.241 325.088 214.318C329.363 214.395 333.581 215.314 337.501 217.021C341.42 218.729 344.965 221.192 347.931 224.269C350.897 227.347 353.227 230.978 354.787 234.956C356.348 238.934 357.108 243.181 357.025 247.453C356.942 251.724 356.017 255.938 354.302 259.852C352.588 263.767 350.118 267.305 347.034 270.264C343.951 273.224 340.313 275.547 336.33 277.101L313.799 285.934C320.544 285.203 327.342 286.711 333.145 290.224C338.947 293.738 343.431 299.061 345.906 305.374L347.054 308.362C348.536 312.14 349.26 316.173 349.182 320.23C349.105 324.288 348.229 328.291 346.603 332.01C344.978 335.729 342.635 339.091 339.709 341.906C336.782 344.72 333.33 346.93 329.549 348.411L241.483 382.919C247.804 382.538 254.083 384.168 259.42 387.575C264.756 390.982 268.875 395.991 271.185 401.883L273.048 406.646C275.947 414.041 275.789 422.284 272.608 429.563C269.427 436.842 263.484 442.56 256.084 445.462L11.4702 541.278L-32.4005 558.467C-27.222 558.174 -22.0834 559.524 -17.7181 562.323C-13.3529 565.122 -9.98416 569.228 -8.0929 574.054L-2.33013 588.753C0.051562 594.828 -0.0778843 601.599 -2.68999 607.579C-5.3021 613.558 -10.1831 618.256 -16.2604 620.641L-275 722Z" fill="#00F2FE"/>
</g>
<path d="M-0.431244 178.354V371.964C8.40863 373.908 17.5583 373.968 26.423 372.141C30.7518 385.164 39.1054 396.473 50.2773 404.435C61.4492 412.397 74.8613 416.6 88.5768 416.438C102.292 416.275 115.601 411.756 126.582 403.531C137.562 395.307 145.646 383.803 149.665 370.682C150.129 371.19 150.616 371.699 151.124 372.185C155.238 376.16 160.137 379.232 165.505 381.205C170.873 383.179 176.594 384.01 182.302 383.646C188.01 383.281 193.579 381.73 198.653 379.09C203.728 376.451 208.196 372.781 211.772 368.315C220.814 371.409 230.65 371.253 239.589 367.874C248.528 364.496 256.011 358.107 260.751 349.806C260.753 349.789 260.761 349.773 260.773 349.762C263.295 345.404 264.974 340.61 265.724 335.631C266.526 336.122 267.36 336.558 268.222 336.935C271.415 338.415 274.892 339.177 278.411 339.169C283.285 339.17 288.047 337.708 292.082 334.972C296.117 332.236 299.239 328.352 301.044 323.822C303.643 319.731 305.016 314.98 305 310.133C304.996 308.554 304.855 306.978 304.58 305.422C303.472 299.556 300.354 294.259 295.763 290.444C291.172 286.63 285.395 284.536 279.428 284.525C278.831 284.525 278.256 284.547 277.681 284.591H277.637C272.74 284.929 268.044 286.672 264.111 289.611C263.32 286.018 262.041 282.551 260.309 279.306C257.54 274.133 253.691 269.617 249.023 266.064C244.355 262.512 238.978 260.006 233.256 258.717C230.319 258.048 227.316 257.714 224.304 257.722C223.752 257.722 223.221 257.722 222.691 257.744C221.197 257.806 219.706 257.947 218.226 258.164H218.204C210.474 259.34 203.246 262.718 197.384 267.895C192.319 272.34 188.432 277.969 186.068 284.281C179.695 277.868 171.379 273.746 162.418 272.561H162.396C158.536 272.025 154.619 272.062 150.77 272.671C149.178 258.98 143.509 246.084 134.499 235.657C125.489 225.231 113.555 217.755 100.244 214.201C94.4787 212.65 88.5332 211.87 82.5627 211.879C81.0597 211.879 79.5568 211.923 78.0759 212.034L77.0813 212.1C73.8207 212.353 70.5843 212.856 67.4005 213.604C63.8764 207.322 59.4032 201.623 54.1392 196.709C53.9181 196.488 53.675 196.289 53.4761 196.09C51.9731 194.719 50.4039 193.414 48.7904 192.197C46.0466 190.087 43.1423 188.194 40.1042 186.536L39.8388 186.404C29.6587 180.866 18.2509 177.976 6.66336 178C4.54153 178 2.4418 178.089 0.364197 178.288L-0.431244 178.354Z" fill="white"/>
<path d="M20.4996 259.933C20.5014 263.1 21.7594 266.136 23.9973 268.376C26.2352 270.615 29.2699 271.873 32.4348 271.875C33.2006 271.884 33.9647 271.802 34.7113 271.632C37.7111 269.197 41.4575 267.869 45.3204 267.873C46.6692 267.864 48.0135 268.027 49.3209 268.359C51.6876 266.058 54.6762 264.502 57.9173 263.882C61.1585 263.263 64.51 263.607 67.5576 264.873C70.6052 266.139 73.2153 268.271 75.065 271.005C76.9148 273.739 77.9232 276.955 77.9655 280.256C79.9172 279.375 82.0351 278.923 84.1764 278.93C88.2174 278.935 92.0912 280.545 94.9465 283.406C97.8019 286.267 99.4054 290.145 99.4047 294.188C99.4122 295.359 99.2711 296.526 98.9848 297.66C102.4 296.956 105.59 295.425 108.276 293.2C110.961 290.975 113.061 288.126 114.39 284.9C116.041 285.737 117.866 286.169 119.717 286.161C121.62 286.159 123.494 285.702 125.185 284.827C126.875 283.953 128.332 282.687 129.434 281.135C130.536 279.582 131.251 277.789 131.519 275.904C131.788 274.02 131.602 272.098 130.977 270.299C130.353 268.501 129.307 266.878 127.929 265.566C126.55 264.254 124.877 263.291 123.051 262.757C121.224 262.223 119.297 262.134 117.429 262.496C115.561 262.859 113.807 263.664 112.312 264.843C109.447 260.622 105.162 257.571 100.238 256.244C95.3138 254.917 90.0771 255.402 85.4803 257.611C84.58 252.268 82.0543 247.333 78.2478 243.478C74.4414 239.624 69.5393 237.038 64.21 236.073C58.8808 235.108 53.3838 235.811 48.4687 238.087C43.5535 240.362 39.4595 244.099 36.7448 248.788C35.3727 248.245 33.9103 247.968 32.4349 247.97C29.2665 247.973 26.2292 249.235 23.9909 251.478C21.7526 253.722 20.4968 256.763 20.4996 259.933Z" fill="#D0D2D3"/>
<path d="M27.064 330.279C27.0654 330.924 26.9395 331.563 26.6935 332.159C26.4474 332.756 26.086 333.297 25.6301 333.754C25.1742 334.21 24.6327 334.571 24.0367 334.818C23.4408 335.064 22.802 335.19 22.1573 335.188C21.5853 335.186 21.0176 335.089 20.4775 334.901C19.7148 336.05 18.6801 336.992 17.4654 337.644C16.2507 338.296 14.8937 338.638 13.5153 338.638C12.7605 338.638 12.0094 338.533 11.283 338.329C10.5385 339.056 9.53833 339.461 8.49808 339.456C8.0752 339.462 7.65512 339.387 7.26038 339.235C4.97955 340.747 2.30472 341.555 -0.431244 341.557V371.964C8.40863 373.908 17.5583 373.968 26.423 372.141C30.7518 385.164 39.1054 396.473 50.2773 404.435C61.4492 412.397 74.8613 416.6 88.5768 416.438C102.292 416.275 115.601 411.756 126.582 403.531C137.562 395.307 145.646 383.803 149.665 370.682C150.129 371.19 150.616 371.699 151.124 372.185C155.238 376.16 160.137 379.232 165.505 381.206C170.873 383.179 176.594 384.01 182.302 383.646C188.01 383.282 193.579 381.73 198.653 379.09C203.728 376.451 208.196 372.781 211.772 368.315C220.814 371.409 230.65 371.253 239.589 367.874C248.528 364.496 256.011 358.107 260.751 349.806C260.753 349.789 260.761 349.773 260.773 349.762C263.295 345.404 264.974 340.61 265.724 335.631C266.526 336.122 267.36 336.558 268.222 336.935C271.415 338.415 274.892 339.177 278.411 339.169C283.285 339.17 288.047 337.708 292.082 334.972C296.117 332.236 299.239 328.352 301.044 323.822C303.643 319.731 305.016 314.98 305 310.133C304.996 308.554 304.855 306.978 304.58 305.422C303.085 304.478 301.492 303.699 299.828 303.1C296.923 302.012 293.846 301.458 290.744 301.464C285.318 301.461 280.026 303.153 275.607 306.305C271.189 309.457 267.865 313.911 266.1 319.045C264.632 318.554 263.094 318.307 261.547 318.315C258.231 318.307 255.011 319.431 252.419 321.5C249.203 317.095 245.057 313.454 240.274 310.836C235.491 308.218 230.191 306.688 224.749 306.354C219.308 306.021 213.86 306.892 208.794 308.906C203.728 310.92 199.168 314.027 195.439 318.006C196.011 318.404 196.468 318.945 196.765 319.576C197.486 319.167 198.301 318.954 199.13 318.956C200.425 318.957 201.668 319.472 202.583 320.388C203.499 321.305 204.014 322.548 204.015 323.844C204.018 324.006 204.011 324.169 203.993 324.33C204.372 324.26 204.756 324.222 205.142 324.22C206.921 324.22 208.627 324.927 209.885 326.185C211.143 327.444 211.85 329.151 211.85 330.931C211.85 332.711 211.143 334.418 209.885 335.677C208.627 336.936 206.921 337.643 205.142 337.643C204.801 337.647 204.46 337.618 204.125 337.554C203.625 339.475 202.577 341.209 201.109 342.544C199.642 343.879 197.818 344.759 195.859 345.075C193.901 345.392 191.893 345.131 190.08 344.326C188.267 343.521 186.727 342.205 185.648 340.54C185.473 340.487 185.303 340.421 185.139 340.341C183.041 342.097 180.347 342.976 177.617 342.794C174.888 342.613 172.333 341.386 170.485 339.368C169.859 339.913 169.089 340.266 168.267 340.385C167.445 340.504 166.607 340.383 165.852 340.038C165.097 339.693 164.457 339.138 164.008 338.438C163.56 337.739 163.323 336.926 163.324 336.095C163.321 335.589 163.41 335.087 163.59 334.613C161.48 334.13 159.522 333.135 157.887 331.716C157.36 331.85 156.818 331.917 156.274 331.915C154.436 331.916 152.672 331.196 151.358 329.91C150.044 328.625 149.286 326.876 149.245 325.038C147.968 324.434 146.889 323.479 146.134 322.285C145.379 321.09 144.978 319.706 144.979 318.293C144.977 316.891 145.367 315.516 146.103 314.323C146.84 313.13 147.895 312.167 149.15 311.542C150.404 310.917 151.808 310.654 153.203 310.784C154.599 310.914 155.93 311.432 157.047 312.278C158.046 311.233 159.221 310.372 160.517 309.735C152.781 306.144 144.045 305.327 135.778 307.421C127.511 309.515 120.216 314.393 115.119 321.234C107.725 321.509 100.463 323.276 93.7685 326.431C95.6199 327.989 97.1835 329.86 98.3879 331.959C99.0301 331.683 99.722 331.54 100.421 331.539C101.085 331.537 101.742 331.665 102.356 331.917C102.97 332.17 103.528 332.541 103.998 333.009C104.468 333.477 104.842 334.034 105.096 334.647C105.351 335.26 105.482 335.917 105.483 336.581C105.486 337.138 105.397 337.691 105.217 338.218C105.379 338.199 105.541 338.192 105.704 338.196C108.466 338.194 111.184 338.883 113.612 340.2C116.04 341.517 118.1 343.42 119.606 345.737C121.004 345.031 122.549 344.667 124.115 344.675C124.866 344.677 125.614 344.759 126.347 344.918C126.829 344.373 127.421 343.935 128.083 343.634C128.746 343.333 129.465 343.175 130.193 343.171C131.532 343.176 132.815 343.712 133.759 344.661C134.704 345.61 135.234 346.896 135.232 348.236C135.224 349.566 134.702 350.842 133.774 351.796C134.085 352.768 134.242 353.783 134.238 354.804C134.238 356.134 133.976 357.451 133.468 358.68C132.959 359.909 132.213 361.025 131.273 361.966C130.333 362.906 129.217 363.652 127.989 364.161C126.761 364.67 125.444 364.932 124.115 364.932C122.549 364.94 121.004 364.576 119.606 363.87C118.289 365.898 116.544 367.613 114.494 368.894C112.444 370.176 110.139 370.993 107.74 371.288C105.341 371.583 102.906 371.349 100.607 370.602C98.3082 369.856 96.2003 368.615 94.4316 366.966C93.4875 368.952 91.8965 370.558 89.9199 371.519C87.9433 372.481 85.6985 372.741 83.5544 372.258C81.4103 371.774 79.4944 370.576 78.1212 368.858C76.7481 367.141 75.9995 365.008 75.9983 362.809C75.9946 362.646 76.002 362.484 76.0204 362.322C70.698 361.133 66.0642 357.88 63.1348 353.278C60.6335 353.165 58.263 352.127 56.4819 350.367C54.7008 348.606 53.6358 346.247 53.4928 343.746C53.3498 341.245 54.139 338.779 55.7078 336.827C57.2766 334.874 59.5134 333.573 61.9855 333.176C63.2356 330.614 65.0023 328.338 67.1743 326.492C69.3462 324.646 71.8765 323.27 74.6058 322.45C68.8965 319.497 62.5168 318.082 56.095 318.346C49.6731 318.61 43.4307 320.543 37.9824 323.954C39.0681 320.59 39.7506 317.108 40.0158 313.583C38.6501 313.399 37.3473 312.895 36.214 312.111C35.0806 311.327 34.1491 310.285 33.4956 309.071C32.3922 309.313 31.2655 309.431 30.1361 309.425C26.1607 309.424 22.3232 307.967 19.3481 305.328C16.3731 302.69 14.4662 299.054 13.9875 295.105C13.5089 291.156 14.4914 287.169 16.7498 283.896C19.0083 280.622 22.3863 278.289 26.2461 277.337C18.9872 270.334 9.59732 265.96 -0.431335 264.909V310.796C0.33136 311.073 1.02585 311.511 1.60538 312.079C2.18488 312.648 2.63596 313.334 2.92822 314.091C4.99765 314.604 6.92224 315.584 8.55435 316.956C10.1865 318.329 11.4827 320.057 12.3438 322.008C12.731 321.945 13.1229 321.915 13.5152 321.92C14.1783 321.92 14.839 322.002 15.4823 322.163C16.1608 321.643 16.9926 321.363 17.8472 321.367C18.3743 321.364 18.8967 321.466 19.3844 321.666C19.8721 321.866 20.3155 322.161 20.6892 322.532C21.0629 322.904 21.3596 323.346 21.5622 323.833C21.7648 324.32 21.8694 324.842 21.8698 325.369V325.392C21.9644 325.373 22.0608 325.366 22.157 325.369C22.8018 325.368 23.4406 325.494 24.0366 325.74C24.6326 325.986 25.1741 326.348 25.63 326.804C26.086 327.26 26.4474 327.802 26.6935 328.398C26.9395 328.995 27.0655 329.634 27.064 330.279Z" fill="#D0D2D3"/>
<defs>
<clipPath id="clip0_717_465">
<rect width="632" height="722" fill="white" transform="matrix(-1 0 0 -1 357 722)"/>
</clipPath>
</defs>
</svg>
