<svg width="306" height="240" viewBox="0 0 306 240" fill="none" xmlns="http://www.w3.org/2000/svg">
<path d="M306 0.940395V194.551C297.16 196.494 288.01 196.554 279.146 194.728C274.817 207.75 266.463 219.059 255.291 227.021C244.12 234.983 230.707 239.187 216.992 239.024C203.277 238.862 189.968 234.342 178.987 226.117C168.007 217.893 159.923 206.389 155.904 193.268C155.439 193.777 154.953 194.285 154.445 194.772C150.33 198.746 145.432 201.819 140.064 203.792C134.695 205.765 128.974 206.596 123.267 206.232C117.559 205.868 111.99 204.316 106.916 201.677C101.841 199.037 97.3728 195.367 93.7962 190.902C84.7548 193.995 74.9186 193.839 65.9796 190.461C57.0407 187.083 49.5576 180.694 44.8176 172.392C44.8153 172.375 44.8075 172.36 44.7955 172.348C42.2742 167.99 40.5947 163.196 39.8446 158.217C39.0428 158.708 38.2083 159.144 37.347 159.522C34.1542 161.001 30.6765 161.763 27.1579 161.755C22.2838 161.756 17.5215 160.294 13.4867 157.558C9.45189 154.822 6.33019 150.938 4.52517 146.408C1.926 142.317 0.553031 137.567 0.568861 132.719C0.57309 131.14 0.713598 129.564 0.988809 128.009C2.09695 122.142 5.21498 116.845 9.80599 113.031C14.397 109.216 20.1736 107.123 26.1412 107.111C26.7379 107.111 27.3126 107.133 27.8873 107.177H27.9315C32.8288 107.515 37.525 109.258 41.458 112.197C42.2487 108.604 43.5278 105.137 45.2596 101.892C48.0286 96.7191 51.8778 92.2031 56.5458 88.6506C61.2137 85.0981 66.5912 82.5924 72.3128 81.3036C75.2494 80.6343 78.2524 80.3005 81.2643 80.3085C81.8168 80.3085 82.3473 80.3085 82.8777 80.3306C84.3722 80.3928 85.8625 80.5331 87.3424 80.7507H87.3645C95.0945 81.9264 102.323 85.3044 108.185 90.481C113.249 94.9263 117.137 100.556 119.501 106.868C125.874 100.454 134.19 96.3327 143.151 95.1471H143.173C147.032 94.6113 150.95 94.6485 154.798 95.2577C156.39 81.5666 162.059 68.6705 171.069 58.2438C180.079 47.8172 192.014 40.3416 205.324 36.7876C211.09 35.2369 217.036 34.4561 223.006 34.4656C224.509 34.4656 226.012 34.5098 227.493 34.6204L228.487 34.6867C231.748 34.9397 234.984 35.4424 238.168 36.1905C241.692 29.9088 246.166 24.2098 251.43 19.2952C251.651 19.0741 251.894 18.875 252.093 18.676C253.596 17.3049 255.165 16.0002 256.778 14.7839C259.522 12.6737 262.426 10.7809 265.465 9.12266L265.73 8.98998C275.91 3.45208 287.318 0.562475 298.905 0.586575C301.027 0.586575 303.127 0.675026 305.205 0.874055L306 0.940395Z" fill="white"/>
<path d="M285.069 82.5199C285.067 85.6865 283.809 88.7229 281.572 90.962C279.334 93.2011 276.299 94.4598 273.134 94.4616C272.368 94.4706 271.604 94.3889 270.857 94.2183C267.858 91.7831 264.111 90.4556 260.248 90.4589C258.9 90.4504 257.555 90.6139 256.248 90.9454C253.881 88.6447 250.893 87.0884 247.652 86.4688C244.41 85.8493 241.059 86.1937 238.011 87.4596C234.964 88.7254 232.354 90.8571 230.504 93.5911C228.654 96.3251 227.646 99.5416 227.603 102.843C225.652 101.962 223.534 101.509 221.392 101.516C217.351 101.521 213.478 103.131 210.622 105.992C207.767 108.853 206.163 112.732 206.164 116.775C206.157 117.945 206.298 119.112 206.584 120.247C203.169 119.543 199.979 118.011 197.293 115.786C194.607 113.562 192.508 110.712 191.179 107.487C189.528 108.323 187.702 108.755 185.852 108.747C183.949 108.745 182.075 108.288 180.384 107.414C178.694 106.539 177.237 105.273 176.135 103.721C175.033 102.169 174.318 100.376 174.05 98.4908C173.781 96.606 173.967 94.6842 174.592 92.8858C175.216 91.0874 176.261 89.4645 177.64 88.1525C179.019 86.8404 180.692 85.8772 182.518 85.3433C184.345 84.8093 186.272 84.7201 188.14 85.0829C190.008 85.4458 191.762 86.2502 193.256 87.4293C196.122 83.2086 200.407 80.1573 205.331 78.8302C210.255 77.5031 215.492 77.9884 220.089 80.1979C220.989 74.8546 223.515 69.9191 227.321 66.0646C231.127 62.2101 236.03 59.6241 241.359 58.6592C246.688 57.6943 252.185 58.3976 257.1 60.6731C262.015 62.9486 266.109 66.6855 268.824 71.3743C270.196 70.8316 271.659 70.554 273.134 70.5561C276.302 70.5591 279.34 71.8212 281.578 74.0649C283.816 76.3085 285.072 79.3499 285.069 82.5199Z" fill="#D0D2D3"/>
<path d="M278.505 152.865C278.503 153.511 278.629 154.15 278.875 154.746C279.121 155.342 279.483 155.884 279.939 156.34C280.395 156.796 280.936 157.158 281.532 157.404C282.128 157.65 282.767 157.776 283.411 157.775C283.983 157.773 284.551 157.676 285.091 157.487C285.854 158.636 286.889 159.579 288.103 160.231C289.318 160.883 290.675 161.224 292.053 161.225C292.808 161.224 293.559 161.12 294.286 160.915C295.03 161.642 296.03 162.047 297.071 162.043C297.494 162.049 297.914 161.974 298.308 161.822C300.589 163.334 303.264 164.141 306 164.144V194.551C297.16 196.494 288.01 196.555 279.146 194.728C274.817 207.75 266.463 219.059 255.291 227.021C244.12 234.983 230.707 239.187 216.992 239.024C203.277 238.862 189.968 234.342 178.987 226.118C168.007 217.893 159.923 206.39 155.904 193.268C155.439 193.777 154.953 194.285 154.445 194.772C150.33 198.747 145.432 201.819 140.064 203.792C134.695 205.765 128.974 206.596 123.267 206.232C117.559 205.868 111.99 204.317 106.916 201.677C101.841 199.037 97.3728 195.367 93.7962 190.902C84.7548 193.995 74.9186 193.839 65.9796 190.461C57.0407 187.083 49.5576 180.694 44.8176 172.392C44.8153 172.376 44.8075 172.36 44.7955 172.348C42.2742 167.99 40.5947 163.196 39.8446 158.217C39.0428 158.709 38.2083 159.144 37.347 159.522C34.1542 161.001 30.6765 161.764 27.1579 161.755C22.2838 161.756 17.5215 160.294 13.4867 157.558C9.45189 154.822 6.33019 150.938 4.52517 146.408C1.926 142.317 0.553031 137.567 0.568861 132.719C0.57309 131.14 0.713598 129.564 0.988809 128.009C2.48357 127.064 4.07702 126.286 5.7408 125.687C8.64571 124.599 11.7231 124.045 14.8248 124.051C20.2512 124.047 25.543 125.74 29.9613 128.892C34.3795 132.044 37.7035 136.498 39.4689 141.631C40.9364 141.14 42.4745 140.894 44.0219 140.902C47.338 140.894 50.5577 142.017 53.1502 144.086C56.3655 139.681 60.5122 136.041 65.2947 133.423C70.0773 130.805 75.378 129.275 80.8193 128.941C86.2605 128.607 91.7084 129.478 96.7746 131.492C101.841 133.506 106.401 136.613 110.13 140.592C109.558 140.99 109.101 141.532 108.804 142.162C108.082 141.754 107.267 141.541 106.439 141.543C105.143 141.543 103.901 142.058 102.985 142.975C102.069 143.891 101.555 145.134 101.554 146.43C101.55 146.593 101.558 146.755 101.576 146.917C101.197 146.846 100.813 146.809 100.427 146.806C98.6478 146.806 96.9416 147.513 95.6836 148.772C94.4256 150.031 93.7189 151.738 93.7189 153.518C93.7189 155.298 94.4256 157.005 95.6836 158.264C96.9416 159.522 98.6478 160.23 100.427 160.23C100.768 160.234 101.108 160.204 101.444 160.141C101.944 162.062 102.992 163.795 104.459 165.131C105.927 166.466 107.751 167.345 109.709 167.662C111.668 167.978 113.676 167.718 115.489 166.913C117.302 166.107 118.842 164.792 119.921 163.126C120.096 163.074 120.265 163.007 120.429 162.927C122.528 164.683 125.222 165.562 127.951 165.381C130.681 165.2 133.235 163.972 135.083 161.954C135.71 162.499 136.48 162.852 137.302 162.971C138.123 163.09 138.962 162.97 139.717 162.625C140.472 162.28 141.112 161.724 141.56 161.025C142.008 160.326 142.246 159.512 142.244 158.681C142.248 158.175 142.158 157.673 141.979 157.2C144.089 156.716 146.047 155.722 147.682 154.303C148.209 154.437 148.751 154.504 149.295 154.502C151.133 154.502 152.897 153.782 154.211 152.497C155.524 151.211 156.283 149.462 156.324 147.624C157.6 147.02 158.679 146.065 159.435 144.871C160.19 143.677 160.59 142.293 160.589 140.879C160.591 139.477 160.202 138.102 159.465 136.91C158.728 135.717 157.674 134.754 156.419 134.129C155.165 133.503 153.761 133.241 152.366 133.371C150.97 133.501 149.639 134.018 148.521 134.864C147.523 133.82 146.348 132.959 145.051 132.321C152.788 128.73 161.523 127.914 169.791 130.008C178.058 132.102 185.353 136.979 190.449 143.821C197.844 144.095 205.106 145.863 211.8 149.017C209.949 150.576 208.385 152.447 207.181 154.546C206.539 154.269 205.847 154.126 205.147 154.126C204.484 154.123 203.826 154.252 203.213 154.504C202.599 154.756 202.041 155.127 201.571 155.596C201.1 156.064 200.727 156.621 200.472 157.234C200.218 157.847 200.086 158.504 200.086 159.168C200.082 159.724 200.172 160.278 200.351 160.804C200.19 160.786 200.027 160.779 199.865 160.782C197.103 160.781 194.385 161.47 191.957 162.787C189.529 164.104 187.468 166.007 185.963 168.323C184.565 167.617 183.02 167.254 181.454 167.262C180.703 167.264 179.955 167.345 179.221 167.505C178.74 166.959 178.148 166.521 177.485 166.22C176.822 165.919 176.104 165.762 175.376 165.758C174.037 165.762 172.754 166.298 171.809 167.247C170.865 168.197 170.335 169.482 170.336 170.822C170.344 172.153 170.867 173.429 171.795 174.383C171.484 175.354 171.327 176.369 171.331 177.39C171.331 178.72 171.592 180.037 172.101 181.266C172.61 182.495 173.355 183.612 174.295 184.552C175.235 185.493 176.351 186.239 177.58 186.748C178.808 187.257 180.124 187.519 181.454 187.518C183.02 187.527 184.565 187.163 185.963 186.457C187.28 188.485 189.025 190.199 191.074 191.481C193.124 192.762 195.43 193.579 197.829 193.874C200.228 194.169 202.662 193.935 204.962 193.189C207.261 192.442 209.368 191.201 211.137 189.553C212.081 191.539 213.672 193.144 215.649 194.106C217.625 195.068 219.87 195.328 222.014 194.844C224.158 194.361 226.074 193.162 227.447 191.445C228.821 189.728 229.569 187.595 229.57 185.395C229.574 185.233 229.567 185.07 229.548 184.909C234.871 183.719 239.505 180.467 242.434 175.864C244.935 175.751 247.306 174.714 249.087 172.953C250.868 171.192 251.933 168.833 252.076 166.332C252.219 163.831 251.43 161.366 249.861 159.413C248.292 157.461 246.055 156.16 243.583 155.762C242.333 153.2 240.566 150.924 238.394 149.079C236.223 147.233 233.692 145.857 230.963 145.037C236.672 142.084 243.052 140.669 249.474 140.933C255.896 141.196 262.138 143.129 267.586 146.541C266.501 143.176 265.818 139.695 265.553 136.169C266.919 135.986 268.221 135.481 269.355 134.697C270.488 133.913 271.42 132.872 272.073 131.658C273.176 131.899 274.303 132.018 275.433 132.012C279.408 132.01 283.245 130.553 286.221 127.915C289.196 125.277 291.103 121.64 291.581 117.691C292.06 113.743 291.077 109.756 288.819 106.482C286.56 103.209 283.182 100.876 279.323 99.9238C286.581 92.921 295.971 88.5465 306 87.4956V133.383C305.237 133.66 304.543 134.098 303.963 134.666C303.384 135.234 302.933 135.92 302.641 136.678C300.571 137.19 298.646 138.17 297.014 139.543C295.382 140.915 294.086 142.643 293.225 144.595C292.838 144.531 292.446 144.502 292.054 144.506C291.39 144.507 290.73 144.588 290.086 144.749C289.408 144.229 288.576 143.949 287.721 143.953C287.194 143.951 286.672 144.053 286.184 144.253C285.697 144.453 285.253 144.747 284.88 145.119C284.506 145.491 284.209 145.933 284.007 146.42C283.804 146.907 283.699 147.429 283.699 147.956V147.978C283.604 147.96 283.508 147.952 283.412 147.956C282.767 147.955 282.128 148.08 281.532 148.327C280.936 148.573 280.395 148.934 279.939 149.391C279.483 149.847 279.121 150.389 278.875 150.985C278.629 151.581 278.503 152.22 278.505 152.865Z" fill="#D0D2D3"/>
</svg>
