<svg id="N" xmlns="http://www.w3.org/2000/svg" viewBox="0 0 104 104"><defs><style>.cls-1{fill:#fff;}</style></defs><path class="cls-1" d="M35.51,60.18c-7-5-17-2-24.5-7.75a8,8,0,0,1-1.46-2.92c-1.26-4.44.29-10.66,5-13.33A38.93,38.93,0,0,1,36.7,30.13a41.9,41.9,0,0,1,5.48.58c17.33,3.47,30.33,15.47,38.5,30.86a54.21,54.21,0,0,1,2.21,5.23,51.86,51.86,0,0,1,1.62,5.38c3-27-9-50-24-71,31,18,42,58,29,91-1.17,3.13-4,5.21-9-9C79.92,81.49,77,75,76.25,73.31,70.51,54.18,51.51,28.18,29.83,44.56L27.9,45.85c10.61,1.71,20.84,5.79,25.61,15.33,5,12-1,24-8,32.66-1,1.16-2,2.29-3.11,3.37a63.41,63.41,0,0,1-6.88,6c-.36-.55.12-2,.9-3.77l0-.09c.31-.69.67-1.42,1-2.14l.22-.43S50.51,71.18,35.51,60.18Z"/></svg>