<svg width="36" height="36" viewBox="0 0 36 36" fill="none" xmlns="http://www.w3.org/2000/svg">
<path d="M17.4372 7.51482C17.6235 7.50498 17.8111 7.5 17.9999 7.5C23.7989 7.5 28.4999 12.201 28.4999 18C28.4999 23.799 23.7989 28.5 17.9999 28.5C16.0096 28.5 14.1486 27.9462 12.5627 26.9844C18.1 26.6919 22.4999 22.1094 22.4999 16.4992C22.4999 12.6905 20.4721 9.35546 17.4372 7.51482Z" fill="white"/>
<path d="M8.09999 15.3L8.1 15.3C8.25206 15.7562 8.32809 15.9843 8.40414 16.0838C8.70432 16.4765 9.29568 16.4765 9.59586 16.0838C9.67191 15.9843 9.74794 15.7562 9.9 15.3L9.90001 15.3C10.0227 14.932 10.084 14.748 10.1633 14.5815C10.4594 13.9601 10.9601 13.4594 11.5815 13.1633C11.748 13.084 11.932 13.0227 12.3 12.9L12.3 12.9C12.7562 12.7479 12.9843 12.6719 13.0838 12.5959C13.4765 12.2957 13.4765 11.7043 13.0838 11.4041C12.9843 11.3281 12.7562 11.2521 12.3 11.1L12.3 11.1C11.932 10.9773 11.748 10.916 11.5815 10.8367C10.9601 10.5406 10.4594 10.0399 10.1633 9.41852C10.084 9.25198 10.0227 9.06799 9.9 8.70001L9.9 8.7C9.74794 8.24382 9.67191 8.01574 9.59586 7.91625C9.29568 7.52353 8.70432 7.52353 8.40414 7.91625C8.32809 8.01574 8.25206 8.24382 8.1 8.7L8.1 8.70001C7.97734 9.06799 7.91601 9.25198 7.83667 9.41852C7.54064 10.0399 7.03993 10.5406 6.41852 10.8367C6.25198 10.916 6.06799 10.9773 5.70001 11.1L5.7 11.1C5.24382 11.2521 5.01574 11.3281 4.91625 11.4041C4.52353 11.7043 4.52353 12.2957 4.91625 12.5959C5.01574 12.6719 5.24382 12.7479 5.7 12.9L5.70001 12.9C6.06799 13.0227 6.25198 13.084 6.41852 13.1633C7.03993 13.4594 7.54064 13.9601 7.83667 14.5815C7.91601 14.748 7.97734 14.932 8.09999 15.3Z" fill="white"/>
</svg>
