<svg width="632" height="893" viewBox="0 0 632 893" fill="none" xmlns="http://www.w3.org/2000/svg">
<g clip-path="url(#clip0_1020_713)">
<path d="M3.891e-05 893V204.252L79.1623 173.251C86.9702 170.176 95.6655 170.236 103.431 173.418C111.195 176.6 117.429 182.658 120.828 190.326C124.227 197.993 124.528 206.677 121.669 214.562C118.809 222.447 113.01 228.922 105.485 232.633L112.959 229.711L210.428 191.523C217.789 188.635 225.952 188.525 233.388 191.215C240.825 193.904 247.026 199.208 250.833 206.135C254.641 213.061 255.792 221.137 254.074 228.851C252.355 236.564 247.883 243.389 241.495 248.047L329.323 213.647C337.354 210.509 346.303 210.686 354.204 214.138C362.105 217.59 368.31 224.036 371.457 232.058C374.604 240.081 374.435 249.024 370.987 256.921C367.538 264.819 361.093 271.026 353.067 274.177L331.641 282.576C332.377 282.511 333.092 282.49 333.807 282.49C341.006 282.491 348.001 284.877 353.696 289.276C359.392 293.675 363.467 299.837 365.283 306.797C367.098 313.758 366.552 321.124 363.73 327.741C360.908 334.358 355.969 339.853 349.687 343.365L384.632 329.684C391.851 326.859 399.842 326.702 407.166 329.241C414.49 331.781 420.666 336.85 424.582 343.535C428.499 350.221 429.897 358.084 428.527 365.709C427.157 373.334 423.107 380.219 417.107 385.125L494.515 354.796C502.062 351.841 510.44 351.807 518.011 354.702C525.581 357.596 531.797 363.21 535.443 370.444C539.088 377.678 539.9 386.012 537.72 393.812C535.539 401.613 530.523 408.32 523.653 412.619L587.585 387.572C591.564 386.007 595.813 385.241 600.088 385.318C604.363 385.395 608.581 386.314 612.5 388.021C616.42 389.729 619.964 392.192 622.931 395.269C625.897 398.347 628.227 401.978 629.787 405.956C631.348 409.934 632.108 414.181 632.025 418.453C631.942 422.724 631.016 426.938 629.302 430.852C627.588 434.767 625.118 438.305 622.034 441.264C618.95 444.224 615.313 446.547 611.33 448.101L588.799 456.934C595.544 456.203 602.342 457.711 608.144 461.224C613.947 464.738 618.431 470.061 620.905 476.374L622.054 479.362C623.536 483.14 624.26 487.173 624.182 491.23C624.105 495.288 623.228 499.291 621.603 503.01C619.977 506.729 617.635 510.091 614.708 512.906C611.782 515.72 608.33 517.93 604.549 519.411L516.482 553.919C522.803 553.538 529.083 555.168 534.419 558.575C539.756 561.982 543.875 566.991 546.184 572.883L548.048 577.646C550.947 585.041 550.789 593.284 547.608 600.563C544.427 607.842 538.483 613.56 531.084 616.462L286.47 712.278L242.599 729.467C247.778 729.174 252.916 730.524 257.282 733.323C261.647 736.122 265.016 740.228 266.907 745.054L272.67 759.753C275.051 765.828 274.922 772.599 272.31 778.579C269.698 784.558 264.817 789.256 258.739 791.641L3.891e-05 893Z" fill="#4FACFE"/>
</g>
<g clip-path="url(#clip1_1020_713)">
<path d="M-204 40.4028V248.94L-203.204 248.874C-201.127 248.675 -199.027 248.586 -196.905 248.586C-185.318 248.562 -173.91 251.452 -163.73 256.99L-163.464 257.122C-160.426 258.781 -157.522 260.674 -154.778 262.784C-153.165 264 -151.595 265.305 -150.092 266.676C-149.893 266.875 -149.65 267.074 -149.429 267.295C-144.165 272.21 -139.692 277.909 -136.168 284.19C-132.984 283.442 -129.748 282.94 -126.487 282.687L-125.493 282.62C-124.012 282.51 -122.509 282.465 -121.006 282.465C-103.827 282.471 -87.2747 288.917 -74.6131 300.533C-62.4298 311.676 -54.6823 326.85 -52.7982 343.258C-48.9495 342.648 -45.032 342.611 -41.1724 343.147H-41.1503C-32.1895 344.332 -23.8735 348.454 -17.5009 354.867C-15.1366 348.555 -11.2491 342.926 -6.18454 338.481C-0.322296 333.304 6.90579 329.926 14.6358 328.751H14.6579C16.1378 328.533 17.6281 328.393 19.1226 328.33C19.653 328.308 20.1835 328.308 20.7361 328.308C23.7479 328.3 26.7508 328.634 29.6874 329.303C35.4091 330.592 40.7866 333.098 45.4545 336.65C50.1225 340.203 53.9717 344.719 56.7406 349.892C57.6821 351.648 58.4875 353.474 59.1498 355.354C59.1498 355.354 61.0948 354.248 62.0452 353.651C69.9785 348.7 76.4246 341.693 80.6995 333.372C94.8911 338.123 110.351 337.345 123.994 331.192C137.637 325.039 148.459 313.964 154.3 300.179C161.577 309.128 171.144 315.934 181.982 319.874C192.819 323.813 204.521 324.739 215.842 322.551C227.164 320.364 237.68 315.145 246.272 307.452C254.864 299.758 261.21 289.877 264.635 278.861C270.507 280.047 276.562 279.988 282.411 278.689C288.259 277.39 293.77 274.88 298.59 271.319C303.409 267.759 307.429 263.228 310.391 258.018C313.353 252.808 315.192 247.035 315.787 241.07C316.383 235.106 315.723 229.083 313.85 223.39C311.978 217.696 308.933 212.458 304.913 208.014C300.894 203.57 295.988 200.017 290.512 197.586C285.036 195.155 279.112 193.898 273.122 193.898C267.988 193.886 262.896 194.808 258.092 196.618C257.659 191.751 256.13 187.046 253.619 182.856C251.107 178.666 247.68 175.099 243.593 172.425C246.956 168.051 249.398 163.041 250.771 157.696C252.144 152.351 252.42 146.784 251.581 141.329C250.742 135.875 248.806 130.648 245.891 125.963C242.975 121.279 239.141 117.235 234.619 114.075C230.097 110.916 224.981 108.707 219.582 107.582C214.182 106.456 208.611 106.438 203.204 107.529C197.797 108.62 192.668 110.796 188.126 113.926C183.584 117.057 179.723 121.076 176.778 125.742H176.756C176.402 125.742 176.071 125.742 175.717 125.764C174.93 117.755 171.192 110.325 165.231 104.921C159.271 99.5173 151.514 96.5256 143.471 96.5284C135.427 96.5311 127.673 99.5282 121.716 104.936C115.759 110.344 112.027 117.776 111.245 125.786C107.754 125.87 104.278 126.262 100.857 126.958C98.2022 121.469 94.4881 116.56 89.9284 112.514C85.3687 108.468 80.0536 105.365 74.2897 103.384C75.1365 99.6025 75.5591 95.7381 75.5495 91.8627C75.55 84.8434 74.1685 77.8927 71.4841 71.4076C68.7996 64.9225 64.8646 59.03 59.9039 54.0666C54.9432 49.1032 49.0539 45.1661 42.5723 42.4802C36.0908 39.7942 29.1438 38.412 22.1283 38.4125C21.7526 38.4125 21.3548 38.4125 20.979 38.4346C18.9649 29.2572 14.3523 20.8542 7.6925 14.2297C1.03271 7.60514 -7.39267 3.03936 -16.5767 1.07795C-25.7608 -0.883469 -35.3151 -0.157558 -44.0978 3.16893C-52.8805 6.49542 -60.5202 12.2818 -66.1039 19.8365C-71.1068 18.0258 -76.3879 17.1052 -81.7081 17.1165C-92.0164 17.1198 -102.028 20.5715 -110.15 26.9228C-118.272 33.274 -124.038 42.16 -126.531 52.1676C-136.163 55.3507 -144.898 60.7842 -152.013 68.018C-159.127 75.2518 -164.417 84.0777 -167.443 93.7645C-167.399 93.1232 -167.399 92.504 -167.399 91.8627C-167.394 80.5421 -170.917 69.5018 -177.477 60.2784C-184.037 51.055 -193.309 44.1074 -204 40.4028Z" fill="white"/>
<path d="M85.1861 164.729C89.7691 168.845 92.7189 174.473 93.4965 180.585C95.6798 179.799 97.9838 179.403 100.304 179.413C103.291 179.408 106.243 180.052 108.956 181.3C111.669 182.549 114.079 184.372 116.019 186.644C118.306 185.565 120.831 185.09 123.354 185.264C125.876 185.438 128.312 186.256 130.429 187.639C132.603 183.796 135.876 180.691 139.828 178.724C143.779 176.756 148.228 176.016 152.603 176.599C156.978 177.181 161.079 179.06 164.379 181.993C167.679 184.926 170.026 188.779 171.12 193.057C177.416 190.452 184.452 190.263 190.879 192.527C192.837 190.332 194.118 187.616 194.568 184.709C195.017 181.801 194.616 178.826 193.413 176.141C192.209 173.457 190.255 171.179 187.785 169.581C185.316 167.984 182.437 167.136 179.496 167.14C178.688 167.134 177.881 167.208 177.087 167.361C177.195 166.488 177.246 165.609 177.242 164.729C177.247 159.841 175.789 155.064 173.057 151.013C170.325 146.961 166.443 143.821 161.911 141.996C157.379 140.171 152.405 139.746 147.629 140.775C142.854 141.803 138.495 144.239 135.115 147.767C131.095 144.248 126.221 141.848 120.981 140.808C115.742 139.769 110.321 140.126 105.263 141.844C100.205 143.563 95.6871 146.582 92.1633 150.598C88.6395 154.615 86.2333 159.488 85.1861 164.729Z" fill="#D0D2D3"/>
<path d="M-108.739 115.083C-106.416 116.123 -104.334 117.635 -102.625 119.524C-100.917 121.412 -99.6195 123.635 -98.8153 126.051C-95.1913 124.324 -91.2259 123.432 -87.2116 123.442C-86.4823 123.442 -85.775 123.464 -85.0677 123.53C-81.9169 119.834 -77.7833 117.106 -73.1463 115.665C-68.5092 114.223 -63.5588 114.127 -58.869 115.386C-54.1793 116.645 -49.9424 119.209 -46.6498 122.78C-43.3573 126.351 -41.1439 130.782 -40.2664 135.56C-37.4783 134.345 -34.4316 133.843 -31.4012 134.1C-28.3709 134.357 -25.4521 135.365 -22.9082 137.032C-20.3643 138.7 -18.2753 140.975 -16.8297 143.652C-15.3841 146.329 -14.6274 149.324 -14.6278 152.367C-14.6304 154.787 -15.1034 157.183 -16.0202 159.422C-12.8472 157.73 -10.1841 155.221 -8.30705 152.153C-6.42997 149.085 -5.4072 145.57 -5.34481 141.974C-2.8695 142.99 -0.21833 143.508 2.45729 143.5C7.10967 143.51 11.6284 141.943 15.2766 139.055C17.0029 139.965 18.9124 140.473 20.8624 140.541C22.8125 140.609 24.7527 140.235 26.5381 139.447C28.3235 138.659 29.9079 137.478 31.1729 135.992C32.4378 134.505 33.3507 132.752 33.8432 130.863C34.3358 128.974 34.3953 126.998 34.0172 125.082C33.6392 123.167 32.8335 121.362 31.6602 119.802C30.4869 118.242 28.9764 116.968 27.2417 116.074C25.5069 115.18 23.5927 114.69 21.6421 114.64C20.15 111.089 17.7037 108.021 14.5747 105.777C11.4457 103.532 7.75637 102.199 3.91604 101.925C5.44755 92.9045 3.44828 83.6406 -1.66666 76.0564C-6.78159 68.4721 -14.6193 63.15 -23.5526 61.1951C-32.4859 59.2401 -41.8285 60.8025 -49.6409 65.5577C-57.4532 70.313 -63.1352 77.8959 -65.5072 86.7322C-67.3273 84.9365 -69.6371 83.7188 -72.1466 83.2321C-74.656 82.7453 -77.2533 83.0113 -79.6122 83.9964C-81.9711 84.9816 -83.9865 86.6422 -85.4054 88.7695C-86.8243 90.8969 -87.5834 93.3963 -87.5874 95.9539C-87.5879 96.3823 -87.5658 96.8104 -87.521 97.2365C-92.0688 98.6445 -96.289 100.949 -99.933 104.014C-103.577 107.079 -106.571 110.842 -108.739 115.083Z" fill="#D0D2D3"/>
<path d="M-204 178.175V248.94L-203.204 248.874C-201.127 248.675 -199.027 248.587 -196.905 248.587C-185.318 248.562 -173.91 251.452 -163.73 256.99L-163.464 257.123C-160.426 258.781 -157.522 260.674 -154.778 262.784C-153.165 264 -151.595 265.305 -150.092 266.676C-149.894 266.875 -149.65 267.074 -149.429 267.295C-144.165 272.21 -139.692 277.909 -136.168 284.191C-132.984 283.442 -129.748 282.94 -126.487 282.687L-125.493 282.62C-124.012 282.51 -122.509 282.466 -121.006 282.466C-103.827 282.471 -87.2747 288.917 -74.6132 300.533C-62.4299 311.676 -54.6824 326.85 -52.7983 343.258C-48.9496 342.649 -45.0321 342.611 -41.1725 343.147H-41.1504C-32.1896 344.333 -23.8735 348.454 -17.5009 354.868C-15.1367 348.556 -11.2492 342.926 -6.1846 338.481C-0.322388 333.304 6.90573 329.926 14.6357 328.751H14.6578C16.1378 328.533 17.628 328.393 19.1225 328.331C19.6529 328.308 20.1834 328.308 20.736 328.308C23.7478 328.301 26.7508 328.634 29.6873 329.304C35.409 330.592 40.7865 333.098 45.4544 336.651C50.1224 340.203 53.9716 344.719 56.7405 349.892C57.682 351.648 58.4875 353.475 59.1497 355.354C59.1497 355.354 61.0947 354.248 62.0451 353.651C69.9785 348.7 76.4245 341.693 80.6994 333.373C94.891 338.124 110.351 337.345 123.994 331.192C137.637 325.039 148.459 313.965 154.3 300.179C161.577 309.128 171.144 315.934 181.981 319.874C192.819 323.814 204.521 324.739 215.842 322.552C227.164 320.364 237.68 315.146 246.272 307.452C254.864 299.758 261.21 289.877 264.634 278.861C273.956 280.733 283.634 279.458 292.154 275.236C300.673 271.014 307.552 264.084 311.712 255.53C308.482 253.465 304.793 252.227 300.971 251.926C298.026 253.698 294.708 254.758 291.282 255.023C287.855 255.287 284.415 254.749 281.233 253.45C278.051 252.151 275.215 250.128 272.952 247.541C270.688 244.954 269.059 241.874 268.193 238.547C266.07 238.236 264.039 237.471 262.238 236.303C260.438 235.135 258.91 233.592 257.761 231.78C251.911 233.854 246.743 237.495 242.82 242.306C241.465 241.896 240.057 241.688 238.642 241.687C236.716 241.685 234.809 242.063 233.029 242.799C231.249 243.535 229.632 244.615 228.269 245.976C226.906 247.338 225.824 248.954 225.086 250.734C224.348 252.514 223.967 254.422 223.966 256.349C223.953 258.851 224.593 261.313 225.823 263.492C219.236 262.742 212.583 264.122 206.837 267.428C203.477 263.92 199.442 261.129 194.975 259.225C190.507 257.321 185.701 256.342 180.845 256.349C180.38 256.349 179.916 256.349 179.474 256.371C179.413 252.79 178.771 249.242 177.574 245.867V245.844C172.914 245.148 168.514 243.259 164.798 240.36C159.243 241.332 153.525 240.149 148.811 237.051C144.097 233.953 140.74 229.174 139.425 223.686C131.789 225.08 124.866 229.063 119.82 234.964C122.393 237.686 123.846 241.28 123.887 245.026C126.542 243.406 129.532 242.414 132.629 242.128C135.725 241.841 138.847 242.267 141.754 243.372C144.661 244.477 147.277 246.233 149.401 248.505C151.526 250.778 153.103 253.506 154.012 256.481C154.3 256.459 154.587 256.437 154.897 256.437C157.986 256.437 160.948 257.665 163.133 259.851C165.317 262.036 166.544 265 166.544 268.091C166.544 271.182 165.317 274.147 163.133 276.332C160.948 278.518 157.986 279.746 154.897 279.746C152.47 279.757 150.102 278.998 148.133 277.578C144.411 280.952 139.563 282.813 134.54 282.797C133.578 282.802 132.617 282.728 131.667 282.576C132.677 284.892 132.91 287.472 132.331 289.931C131.753 292.39 130.393 294.595 128.457 296.216C126.52 297.838 124.111 298.788 121.59 298.924C119.069 299.06 116.571 298.376 114.472 296.973C110.85 299.826 106.503 301.611 101.922 302.126C97.3407 302.64 92.7068 301.864 88.5429 299.884C84.379 297.904 80.8507 294.8 78.3557 290.922C75.8607 287.043 74.4983 282.544 74.4221 277.932C72.9873 278.358 71.4984 278.575 70.0016 278.574C65.7229 278.572 61.6197 276.871 58.5941 273.844C55.5685 270.817 53.8682 266.711 53.867 262.43C53.8574 259.893 54.4561 257.39 55.6131 255.132C50.6893 256.835 46.4187 260.031 43.396 264.277C40.3732 268.522 38.7488 273.604 38.749 278.817C38.749 279.613 38.7932 280.409 38.8596 281.205C37.7438 281.001 36.6121 280.898 35.4779 280.896C32.3163 280.89 29.205 281.688 26.4367 283.216C23.6684 284.744 21.3339 286.952 19.6527 289.631C15.0813 283.391 9.23459 278.197 2.50134 274.394C2.48993 274.267 2.46774 274.141 2.43503 274.018C-0.659241 277.223 -4.49585 279.615 -8.73486 280.982C-12.9738 282.349 -17.4844 282.649 -21.8669 281.855C-26.2494 281.061 -30.3686 279.198 -33.8595 276.431C-37.3504 273.664 -40.1053 270.078 -41.88 265.991C-45.3021 267.647 -49.1261 268.289 -52.9012 267.843C-56.6764 267.396 -60.2451 265.879 -63.1866 263.469C-64.5838 265.109 -66.3708 266.37 -68.3831 267.136C-70.3954 267.903 -72.5682 268.15 -74.7011 267.855C-76.8341 267.561 -78.8586 266.734 -80.5882 265.451C-82.3177 264.167 -83.6966 262.469 -84.5977 260.513C-85.4988 258.556 -85.8933 256.404 -85.7446 254.255C-85.5959 252.106 -84.9089 250.028 -83.747 248.215C-82.585 246.401 -80.9855 244.909 -79.0957 243.877C-77.206 242.844 -75.0869 242.304 -72.9337 242.306C-71.8893 242.304 -70.8491 242.437 -69.8394 242.704C-68.6773 238.481 -66.1629 234.755 -62.6816 232.099C-59.2003 229.443 -54.9443 228.002 -50.5662 227.998C-47.8936 227.991 -45.2471 228.525 -42.7862 229.568C-41.9975 227.116 -40.4881 224.958 -38.455 223.376C-36.4219 221.795 -33.9596 220.863 -31.3893 220.703C-28.819 220.543 -26.2603 221.162 -24.0469 222.479C-21.8336 223.796 -20.0685 225.751 -18.9821 228.087C-18.3283 228.024 -17.6718 227.994 -17.015 227.998C-10.8561 227.999 -4.88083 230.097 -0.0723572 233.947C4.73615 237.798 8.09143 243.171 9.44144 249.184C11.2882 243.226 10.8995 236.799 8.34821 231.107C5.79694 225.415 1.2583 220.85 -4.41669 218.268C-1.94885 213.509 -1.03806 208.095 -1.81305 202.791C-2.58804 197.486 -5.00961 192.559 -8.73553 188.707C-12.4614 184.854 -17.3032 182.271 -22.5766 181.321C-27.8499 180.372 -33.2882 181.105 -38.1227 183.416C-37.552 185.302 -37.2616 187.261 -37.2607 189.232C-37.2626 192.581 -38.1115 195.875 -39.7283 198.808C-41.3452 201.74 -43.6774 204.216 -46.5078 206.004C-49.3383 207.791 -52.5748 208.834 -55.9162 209.033C-59.2575 209.233 -62.595 208.583 -65.6179 207.144C-65.9708 210.32 -67.4955 213.25 -69.8935 215.36C-72.2915 217.47 -75.3902 218.609 -78.5832 218.554C-81.7762 218.498 -84.8336 217.253 -87.1572 215.061C-89.4807 212.869 -90.9031 209.888 -91.146 206.702C-95.955 207.275 -100.502 209.205 -104.255 212.268C-108.009 215.33 -110.813 219.398 -112.342 223.996C-116.019 222.332 -120.151 221.959 -124.066 222.938C-127.982 223.918 -131.452 226.192 -133.914 229.391C-139.561 224.323 -146.459 220.857 -153.894 219.352C-154.651 218 -155.485 216.693 -156.392 215.437C-160.244 215.317 -164.015 214.299 -167.404 212.464C-170.794 210.628 -173.708 208.026 -175.914 204.864C-178.121 201.703 -179.559 198.069 -180.114 194.254C-180.67 190.438 -180.327 186.545 -179.113 182.885C-183.116 185.292 -187.864 186.142 -192.453 185.273C-197.042 184.405 -201.152 181.878 -204 178.175Z" fill="#D0D2D3"/>
<path d="M-204 248.94V442.55C-195.16 444.494 -186.01 444.554 -177.146 442.727C-172.817 455.75 -164.463 467.058 -153.291 475.021C-142.12 482.983 -128.707 487.186 -114.992 487.024C-101.277 486.861 -87.9677 482.342 -76.9872 474.117C-66.0068 465.892 -57.9231 454.389 -53.9036 441.268C-53.4394 441.776 -52.953 442.285 -52.4448 442.771C-48.3302 446.746 -43.4322 449.818 -38.0638 451.791C-32.6953 453.765 -26.9744 454.596 -21.2667 454.232C-15.559 453.867 -9.98998 452.316 -4.91554 449.676C0.158905 447.037 4.62716 443.367 8.20377 438.901C17.2452 441.994 27.0814 441.839 36.0204 438.46C44.9593 435.082 52.4424 428.693 57.1824 420.392C57.1847 420.375 57.1925 420.359 57.2045 420.347C59.7258 415.989 61.4053 411.196 62.1554 406.216C62.9572 406.708 63.7917 407.144 64.653 407.521C67.8458 409.001 71.3235 409.763 74.8421 409.755C79.7162 409.756 84.4785 408.294 88.5133 405.558C92.5481 402.822 95.6698 398.938 97.4748 394.407C100.074 390.317 101.447 385.566 101.431 380.719C101.427 379.139 101.286 377.563 101.011 376.008C99.9031 370.141 96.785 364.845 92.194 361.03C87.603 357.216 81.8264 355.122 75.8588 355.11C75.2621 355.11 74.6874 355.133 74.1127 355.177H74.0685C69.1712 355.515 64.475 357.258 60.542 360.197C59.7513 356.604 58.4722 353.137 56.7404 349.891C53.9714 344.719 50.1222 340.203 45.4542 336.65C40.7863 333.098 35.4088 330.592 29.6872 329.303C26.7506 328.634 23.7476 328.3 20.7357 328.308C20.1832 328.308 19.6527 328.308 19.1223 328.33C17.6278 328.392 16.1375 328.533 14.6576 328.75H14.6355C6.90554 329.926 -0.322563 333.304 -6.1848 338.481C-11.2494 342.926 -15.1369 348.555 -17.5011 354.867C-23.8737 348.454 -32.1898 344.332 -41.1506 343.147H-41.1727C-45.0323 342.611 -48.9498 342.648 -52.7985 343.257C-54.3903 329.566 -60.0592 316.67 -69.0692 306.243C-78.0792 295.817 -90.0141 288.341 -103.324 284.787C-109.09 283.236 -115.036 282.456 -121.006 282.465C-122.509 282.465 -124.012 282.509 -125.493 282.62L-126.487 282.686C-129.748 282.939 -132.984 283.442 -136.168 284.19C-139.692 277.908 -144.166 272.209 -149.43 267.295C-149.651 267.074 -149.894 266.875 -150.093 266.676C-151.596 265.304 -153.165 264 -154.778 262.783C-157.522 260.673 -160.426 258.78 -163.465 257.122L-163.73 256.989C-173.91 251.452 -185.318 248.562 -196.905 248.586C-199.027 248.586 -201.127 248.675 -203.205 248.874L-204 248.94Z" fill="white"/>
<path d="M-176.505 400.865C-176.503 401.51 -176.629 402.149 -176.875 402.745C-177.121 403.342 -177.483 403.883 -177.939 404.34C-178.395 404.796 -178.936 405.157 -179.532 405.404C-180.128 405.65 -180.767 405.776 -181.411 405.774C-181.983 405.773 -182.551 405.675 -183.091 405.487C-183.854 406.636 -184.889 407.578 -186.103 408.23C-187.318 408.882 -188.675 409.224 -190.053 409.224C-190.808 409.224 -191.559 409.119 -192.286 408.915C-193.03 409.642 -194.03 410.047 -195.071 410.042C-195.494 410.048 -195.914 409.973 -196.308 409.821C-198.589 411.333 -201.264 412.141 -204 412.143V442.55C-195.16 444.494 -186.01 444.554 -177.146 442.727C-172.817 455.75 -164.463 467.059 -153.291 475.021C-142.12 482.983 -128.707 487.186 -114.992 487.024C-101.277 486.861 -87.9677 482.342 -76.9872 474.117C-66.0068 465.893 -57.9231 454.389 -53.9036 441.268C-53.4394 441.776 -52.953 442.285 -52.4448 442.771C-48.3302 446.746 -43.4322 449.818 -38.0638 451.792C-32.6953 453.765 -26.9744 454.596 -21.2667 454.232C-15.559 453.868 -9.98998 452.316 -4.91554 449.676C0.158905 447.037 4.62716 443.367 8.20377 438.901C17.2452 441.995 27.0814 441.839 36.0204 438.461C44.9593 435.082 52.4424 428.693 57.1824 420.392C57.1847 420.375 57.1925 420.36 57.2045 420.348C59.7258 415.99 61.4053 411.196 62.1554 406.217C62.9572 406.708 63.7917 407.144 64.653 407.521C67.8458 409.001 71.3235 409.763 74.8421 409.755C79.7162 409.756 84.4785 408.294 88.5133 405.558C92.5481 402.822 95.6698 398.938 97.4748 394.408C100.074 390.317 101.447 385.566 101.431 380.719C101.427 379.14 101.286 377.564 101.011 376.009C99.5164 375.064 97.923 374.285 96.2592 373.687C93.3543 372.599 90.2769 372.044 87.1752 372.05C81.7488 372.047 76.457 373.739 72.0387 376.891C67.6205 380.043 64.2965 384.497 62.5311 389.631C61.0636 389.14 59.5255 388.893 57.9781 388.901C54.662 388.893 51.4423 390.017 48.8498 392.086C45.6345 387.681 41.4878 384.04 36.7053 381.422C31.9227 378.804 26.622 377.274 21.1807 376.94C15.7395 376.607 10.2916 377.478 5.22538 379.492C0.159103 381.506 -4.40093 384.613 -8.12981 388.592C-7.55804 388.99 -7.10075 389.531 -6.80366 390.162C-6.08237 389.754 -5.26738 389.54 -4.43873 389.542C-3.14339 389.543 -1.9012 390.058 -0.985252 390.974C-0.0693054 391.891 0.44545 393.134 0.445885 394.43C0.44957 394.592 0.4422 394.755 0.42379 394.916C0.802895 394.846 1.18747 394.809 1.57309 394.806C3.35217 394.806 5.0584 395.513 6.31639 396.771C7.57439 398.03 8.28114 399.737 8.28114 401.517C8.28114 403.297 7.57439 405.005 6.31639 406.263C5.0584 407.522 3.35217 408.229 1.57309 408.229C1.23209 408.233 0.891518 408.204 0.556404 408.141C0.0560608 410.061 -0.991753 411.795 -2.45939 413.13C-3.92702 414.465 -5.75111 415.345 -7.70945 415.661C-9.66779 415.978 -11.6759 415.717 -13.489 414.912C-15.3021 414.107 -16.842 412.791 -17.9211 411.126C-18.0955 411.073 -18.2655 411.007 -18.4294 410.927C-20.5277 412.683 -23.2219 413.562 -25.9513 413.38C-28.6808 413.199 -31.2353 411.972 -33.0833 409.954C-33.7098 410.499 -34.4799 410.852 -35.3016 410.971C-36.1233 411.09 -36.9618 410.969 -37.717 410.624C-38.4722 410.279 -39.1121 409.724 -39.5602 409.025C-40.0084 408.325 -40.2459 407.512 -40.2444 406.681C-40.2482 406.175 -40.1582 405.673 -39.9791 405.199C-42.0885 404.716 -44.0468 403.721 -45.6815 402.302C-46.2088 402.437 -46.751 402.503 -47.295 402.501C-49.1325 402.502 -50.897 401.782 -52.2107 400.496C-53.5244 399.211 -54.2828 397.462 -54.3235 395.624C-55.6004 395.02 -56.6794 394.065 -57.4347 392.871C-58.19 391.677 -58.5904 390.292 -58.5893 388.879C-58.5913 387.477 -58.202 386.102 -57.4653 384.909C-56.7285 383.716 -55.6735 382.753 -54.4192 382.128C-53.1648 381.503 -51.7609 381.24 -50.3656 381.37C-48.9702 381.5 -47.6388 382.018 -46.5214 382.864C-45.5226 381.819 -44.348 380.959 -43.0514 380.321C-50.7876 376.73 -59.5234 375.913 -67.7906 378.007C-76.0579 380.101 -83.3528 384.979 -88.4494 391.82C-95.8437 392.095 -103.106 393.862 -109.8 397.017C-107.949 398.575 -106.385 400.446 -105.181 402.546C-104.539 402.269 -103.847 402.126 -103.147 402.125C-102.484 402.123 -101.826 402.251 -101.213 402.504C-100.599 402.756 -100.041 403.127 -99.5705 403.595C-99.1003 404.063 -98.7271 404.62 -98.4724 405.233C-98.2176 405.846 -98.0863 406.504 -98.086 407.167C-98.0824 407.724 -98.172 408.277 -98.3512 408.804C-98.1898 408.785 -98.0274 408.778 -97.865 408.782C-95.1032 408.78 -92.3848 409.469 -89.9569 410.786C-87.529 412.103 -85.4685 414.006 -83.9627 416.323C-82.5648 415.617 -81.0195 415.253 -79.4538 415.261C-78.7032 415.263 -77.9549 415.345 -77.2215 415.505C-76.7397 414.959 -76.148 414.521 -75.4852 414.22C-74.8224 413.919 -74.1035 413.761 -73.3757 413.757C-72.0367 413.762 -70.7542 414.298 -69.8094 415.247C-68.8647 416.196 -68.3349 417.482 -68.3363 418.822C-68.3443 420.152 -68.8671 421.429 -69.7951 422.382C-69.4835 423.354 -69.3269 424.369 -69.331 425.39C-69.3308 426.72 -69.5925 428.037 -70.1011 429.266C-70.6098 430.495 -71.3554 431.611 -72.2954 432.552C-73.2354 433.492 -74.3515 434.238 -75.5797 434.747C-76.808 435.256 -78.1244 435.518 -79.4538 435.518C-81.0195 435.526 -82.5648 435.162 -83.9627 434.456C-85.2798 436.484 -87.0246 438.199 -89.0745 439.48C-91.1244 440.762 -93.4298 441.579 -95.8289 441.874C-98.2279 442.169 -100.662 441.935 -102.962 441.188C-105.261 440.442 -107.368 439.201 -109.137 437.552C-110.081 439.538 -111.672 441.144 -113.649 442.106C-115.625 443.067 -117.87 443.328 -120.014 442.844C-122.158 442.36 -124.074 441.162 -125.447 439.444C-126.821 437.727 -127.569 435.594 -127.57 433.395C-127.574 433.232 -127.567 433.07 -127.548 432.908C-132.871 431.719 -137.505 428.466 -140.434 423.864C-142.935 423.751 -145.306 422.713 -147.087 420.953C-148.868 419.192 -149.933 416.833 -150.076 414.332C-150.219 411.831 -149.43 409.365 -147.861 407.413C-146.292 405.46 -144.055 404.16 -141.583 403.762C-140.333 401.2 -138.566 398.924 -136.394 397.078C-134.223 395.232 -131.692 393.856 -128.963 393.036C-134.672 390.083 -141.052 388.669 -147.474 388.932C-153.896 389.196 -160.138 391.129 -165.586 394.54C-164.501 391.176 -163.818 387.694 -163.553 384.169C-164.919 383.985 -166.221 383.481 -167.355 382.697C-168.488 381.913 -169.42 380.871 -170.073 379.657C-171.176 379.899 -172.303 380.017 -173.433 380.011C-177.408 380.01 -181.245 378.553 -184.221 375.915C-187.196 373.276 -189.103 369.64 -189.581 365.691C-190.06 361.742 -189.077 357.755 -186.819 354.482C-184.56 351.208 -181.182 348.875 -177.323 347.923C-184.581 340.921 -193.971 336.546 -204 335.495V381.382C-203.237 381.659 -202.543 382.097 -201.963 382.665C-201.384 383.234 -200.933 383.92 -200.641 384.677C-198.571 385.19 -196.646 386.17 -195.014 387.542C-193.382 388.915 -192.086 390.643 -191.225 392.594C-190.838 392.531 -190.446 392.501 -190.054 392.506C-189.39 392.506 -188.73 392.588 -188.086 392.749C-187.408 392.229 -186.576 391.949 -185.721 391.953C-185.194 391.95 -184.672 392.052 -184.184 392.252C-183.697 392.452 -183.253 392.747 -182.88 393.118C-182.506 393.49 -182.209 393.932 -182.007 394.419C-181.804 394.906 -181.699 395.428 -181.699 395.956V395.978C-181.604 395.959 -181.508 395.952 -181.412 395.956C-180.767 395.954 -180.128 396.08 -179.532 396.326C-178.936 396.572 -178.395 396.934 -177.939 397.39C-177.483 397.846 -177.121 398.388 -176.875 398.984C-176.629 399.581 -176.503 400.22 -176.505 400.865Z" fill="#D0D2D3"/>
</g>
<defs>
<clipPath id="clip0_1020_713">
<rect width="632" height="722" fill="white" transform="matrix(-1 0 0 -1 632 893)"/>
</clipPath>
<clipPath id="clip1_1020_713">
<rect width="520" height="487" fill="white" transform="matrix(-1 0 0 1 316 0)"/>
</clipPath>
</defs>
</svg>
