<svg xmlns="http://www.w3.org/2000/svg" viewBox="0 0 291.72103 333.27997"><defs><style>.cls-1{fill:#26a9e0;}</style></defs><g id="Layer_2" data-name="Layer 2"><g id="sky1"><path class="cls-1" d="M291.721,0V317.92l-36.54,14.32a15.01316,15.01316,0,0,1-12.15-27.43l-3.45,1.35-44.99,17.64a15.01751,15.01751,0,0,1-14.34-26.11l-40.54,15.89a15.01569,15.01569,0,0,1-10.96-27.96l9.88995-3.88c-.34.03-.67.04-1,.04a15.0158,15.0158,0,0,1-7.32995-28.12l-16.13,6.32a15.02027,15.02027,0,0,1-14.99-25.61l-35.73,14.01a15.01761,15.01761,0,0,1-13.45-26.71L20.50106,233.24a15.0157,15.0157,0,0,1-10.96-27.96l10.4-4.08a14.26536,14.26536,0,0,1-14.81994-8.98l-.53-1.38a14.27336,14.27336,0,0,1,8.08-18.5l40.65-15.94a13.8292,13.8292,0,0,1-13.71-8.76l-.86-2.2a13.83821,13.83821,0,0,1,7.83-17.93l112.91-44.26,16.39-6.43a13.82332,13.82332,0,0,1-13.37994-8.77l-.86005-2.2a13.83833,13.83833,0,0,1,7.83-17.93L282.381,3.66Z"/></g></g></svg>