<?xml version="1.0" encoding="UTF-8" standalone="no"?>
<!-- Created with Inkscape (http://www.inkscape.org/) -->

<svg
   width="210mm"
   height="297mm"
   viewBox="0 0 210 297"
   version="1.1"
   id="svg5"
   sodipodi:docname="favicon.svg"
   inkscape:version="1.1.2 (b8e25be833, 2022-02-05)"
   xmlns:inkscape="http://www.inkscape.org/namespaces/inkscape"
   xmlns:sodipodi="http://sodipodi.sourceforge.net/DTD/sodipodi-0.dtd"
   xmlns="http://www.w3.org/2000/svg"
   xmlns:svg="http://www.w3.org/2000/svg">
  <sodipodi:namedview
     id="namedview6"
     pagecolor="#ffffff"
     bordercolor="#666666"
     borderopacity="1.0"
     inkscape:pageshadow="2"
     inkscape:pageopacity="0.0"
     inkscape:pagecheckerboard="0"
     inkscape:document-units="mm"
     showgrid="false"
     inkscape:zoom="0.50511364"
     inkscape:cx="113.83577"
     inkscape:cy="657.27784"
     inkscape:window-width="1600"
     inkscape:window-height="837"
     inkscape:window-x="-8"
     inkscape:window-y="-8"
     inkscape:window-maximized="1"
     inkscape:current-layer="layer3" />
  <defs
     id="defs2" />
  <g
     id="layer1" />
  <g
     inkscape:groupmode="layer"
     id="layer5"
     inkscape:label="M fixed"
     style="display:inline">
    <path
       style="fill:#b9bffb;fill-opacity:1;stroke:#b9bffb;stroke-width:0.264583px;stroke-linecap:butt;stroke-linejoin:miter;stroke-opacity:1"
       d="m 58.706696,247.23483 32.13127,0.1852 -0.37039,-61.66982 17.593494,61.39202 7.68557,0.0926 17.2231,-61.20683 0.0926,61.02164 31.76088,0.18519 -0.0926,-134.82169 2.87052,-6.57441 2.31493,-5.83363 2.50013,-9.722717 0.27779,-5.55584 0.0926,-4.074281 -1.94454,-5.741035 -2.87052,-5.648436 -4.35207,-3.611295 -5.64844,-2.314933 -4.90766,-0.833376 -6.38921,-0.462987 -10.18571,0.925973 -7.22259,2.407531 -3.3335,4.537268 -0.83338,4.815062 -0.27779,3.426101 -0.64818,4.166877 -1.11117,5.000255 -0.74078,2.592726 -0.74078,3.240905 -0.27779,3.79649 -0.0926,3.796492 0.83337,4.72246 0.92598,2.40753 1.29636,0.74078 -8.70415,42.68736 -1.29636,-2.31493 -2.03714,-2.22234 -2.50013,-1.57415 -1.66675,-0.37039 -2.96312,-0.37039 -6.389212,-35.18698 0.277791,-5.27805 0.277792,-3.2409 0.0926,-1.203765 -1.944544,-0.277794 0.0926,6.574409 -0.833377,6.20402 -0.740778,6.11142 -2.129739,4.72247 -0.925973,2.22233 -1.38896,1.11117 -2.314932,0.64818 -2.592726,-1.11117 -1.481555,-1.85194 -1.296363,-4.07428 v -2.59273 l -0.185196,-6.11142 -3.333503,3.5187 0.0926,9.44492 -0.74078,1.75935 -2.037141,1.48156 H 74.818631 72.78149 l -1.75935,-1.94455 -0.185195,-2.22233 v -4.81506 l -0.648181,-0.0926 -1.111168,3.88909 -0.648179,1.75935 -0.277794,0.0926 0.648181,1.57416 v 2.59273 1.66675 l -1.018569,1.38895 -1.481558,1.01858 -1.481555,0.46298 -1.666754,-0.18519 -1.574154,-0.64818 -1.574154,-1.57416 -1.75935,-4.16688 -2.129737,-8.33376 -3.611295,-0.0926 1.851945,8.05596 0.833377,2.68533 1.296363,1.66675 2.314932,1.20376 -0.277791,24.2605 h 5.18545 l 4.444669,5.18545 2.222336,4.07428 -0.740778,4.07428 -4.444672,3.7039 -4.815059,2.03714 -2.12974,0.18519 z"
       id="path18865" />
    <path
       style="fill:#ffffff;fill-opacity:1;stroke:#b9bffb;stroke-width:0.264583px;stroke-linecap:butt;stroke-linejoin:miter;stroke-opacity:1"
       d="m 110.78571,193.875 2.22619,-0.26191 1.50595,-0.85119 1.24405,-1.6369 0.72024,-2.42262 0.78572,-3.53572 0.58928,-2.94642 1.24405,-1.375 0.91667,-1.375 0.78571,-3.01191 1.11309,-4.58333 0.98215,-4.05953 0.52381,-3.40476 0.39285,-4.32143 v -3.14285 l -1.04761,-2.4881 -1.17858,-1.17857 -1.76785,-0.72024 -1.89881,-0.0655 -2.02976,0.72024 -0.91667,0.98215 -0.45834,0.52381 -1.57142,-0.26191 -0.78572,-1.44047 -0.72024,-2.16072 -1.04762,-1.57143 -3.2738,-1.44047 h -1.83334 l -1.6369,0.19643 -1.83333,1.57142 -1.70239,2.75 -0.589282,2.02977 -0.06548,2.68452 0.458332,2.16071 1.24405,1.24405 -0.13095,0.91667 -0.72024,1.11309 v 1.17857 l 0.32738,2.16072 0.65476,1.96428 1.76786,1.83334 1.57143,1.50595 1.375,1.44048 0.19643,1.96428 -0.13095,4.32143 0.52381,2.48809 -0.0655,1.70239 -0.19643,6.875 0.98214,2.35714 c 0,0 0.19643,-0.0655 1.1131,0.58928 0.91667,0.65477 2.35714,0.98215 2.35714,0.98215 z"
       id="path18867" />
    <path
       style="fill:#ffffff;fill-opacity:1;stroke:#b9bffb;stroke-width:0.264583px;stroke-linecap:butt;stroke-linejoin:miter;stroke-opacity:1"
       d="m 146.0119,116.38393 0.4256,2.55357 0.19643,2.65178 0.22916,3.33929 0.13095,2.55357 0.65477,3.79762 0.85119,2.48809 0.6875,2.12798 0.81845,1.21131 1.11309,0.98214 1.27679,0.62203 1.60417,0.0327 c 0,0 1.6369,0 1.76786,0 0.13095,0 1.8988,-0.52381 1.8988,-0.52381 l 1.73512,-0.94941 1.47322,-1.80059 0.6875,-1.93155 0.13095,-2.12798 0.81845,-2.58631 0.52381,-2.84821 0.13095,-3.04464 0.19643,-3.30655 0.0327,-2.55357 0.4256,-4.125 0.49107,-3.11012 3.20833,-10.574408 1.375,-6.220237 0.62202,-3.994047 0.13096,-3.764881 0.0327,-3.241071 -0.75297,-3.502978 -0.98214,-2.946426 -1.93155,-3.601191 -2.52083,-2.389881 -2.71727,-1.505953 -2.22619,-0.458335 -2.25893,-0.327379 -2.09523,0.16369 -1.73512,0.130953 -2.71727,0.523808 -1.50595,0.163693 -2.16071,0.458332 h -2.68453 l -0.91666,-0.294642 -1.17857,-0.294643 -1.1131,-0.261906 -0.98214,-0.03274 -1.70238,-0.03274 -1.96429,0.327382 -2.09524,0.491069 -1.34226,0.523812 -0.6875,0.818451 -0.78571,0.982144 -0.72024,1.309524 -0.55655,1.473213 -1.66964,4.288692 -0.81845,3.76488 -1.01488,4.877975 -0.45834,4.419642 -0.39285,3.601191 0.0327,3.208335 0.39286,3.044642 0.85119,3.30655 0.98214,1.47322 1.50596,0.55654 0.22916,0.62203 0.58929,0.58928 0.88393,0.36012 0.19643,1.21131 0.58928,1.73512 0.85119,1.89881 0.55655,1.47321 0.98214,1.63691 1.04762,1.01488 1.27679,1.01488 1.60416,0.52381 1.89881,0.39286 1.89881,-0.13095 1.50596,-0.68751 1.57142,-0.72023 z"
       id="path18871" />
  </g>
  <g
     inkscape:groupmode="layer"
     id="layer3"
     inkscape:label="S fixed"
     style="display:inline">
    <path
       style="fill:#f4d29c;fill-opacity:1;stroke:#f4d29c;stroke-width:0.264583px;stroke-linecap:butt;stroke-linejoin:miter;stroke-opacity:1"
       d="m 35.927757,171.76802 -0.0463,6.20402 c 0,0 0,3.00941 0,3.19461 0,0.18519 0.0463,2.08344 0.0463,2.08344 0,0 0.231495,0.27779 0.324091,1.89824 0.0926,1.62046 0.925973,4.44467 0.925973,4.44467 l 2.08344,5.50954 2.592726,4.90766 2.639023,3.19461 2.870518,3.3798 c 0,0 1.851945,1.43526 2.731619,2.31493 0.879676,0.87968 3.657594,2.54643 3.657594,2.54643 l 4.213178,2.26863 4.120581,1.71305 4.120581,1.01857 4.120581,0.64819 4.027982,0.23149 3.611295,-0.23149 c 0,0 3.657595,-0.50929 4.027983,-0.50929 0.37039,0 3.79649,-1.20376 3.79649,-1.20376 l 3.79649,-1.29637 2.824218,-1.25006 3.333504,-2.03714 3.4261,-2.59273 2.731626,-2.36123 3.4261,-4.07428 3.4724,-5.78733 1.57415,-3.75019 1.38896,-4.39838 0.92597,-4.76876 0.1852,-4.49097 -0.2315,-5.13915 -0.74077,-9.21343 -0.74078,-3.4261 -1.57416,-6.80591 -1.29636,-3.93538 -2.17604,-5.32435 -2.50012,-4.25947 -2.50013,-4.25948 -4.213181,-3.88909 -4.537268,-4.72246 -3.564996,-3.565 c 0,0 -3.564996,-3.61129 -3.611295,-3.84279 -0.0463,-0.23149 -4.074282,-4.81506 -4.074282,-4.81506 l -3.750191,-5.09285 -4.213177,-6.8985 -1.527858,-3.2409 -1.388959,-3.88909 -1.388959,-4.722463 -1.018572,-4.537271 -0.231492,-6.667005 -0.0463,-1.990841 0.37039,-1.527858 0.648181,-1.759349 0.925973,-0.925973 1.157465,-0.879674 1.574155,-0.462986 2.08344,-0.185195 1.481558,0.0463 1.111168,0.370388 1.018569,0.416689 0.972272,0.648182 1.064869,1.064868 0.648181,1.805647 0.370391,1.620454 0.0463,2.731621 v 1.75935 2.037141 l -0.833374,0.879673 -0.185195,0.879674 -0.416687,1.574154 -0.0926,2.777921 0.370391,2.963114 0.648181,1.481555 0.925973,2.037141 0.0463,0.972272 0.462987,1.018572 1.29636,1.666749 1.157468,1.06487 1.527855,0.74078 1.157467,0.50928 0.925973,0.74078 0.879673,0.2315 2.083441,0.0463 2.361231,0.1852 1.481558,0.50929 1.759347,0.92597 1.250066,1.15746 2.129738,1.66676 1.944545,1.06487 1.25006,0.0926 c 0,0 1.29636,0.0926 1.52785,0.1389 0.2315,0.0463 2.12974,-0.1852 2.12974,-0.1852 l 2.08344,-0.78707 1.48156,-1.48156 1.38896,-2.50013 1.11117,-2.87052 0.50928,-4.722458 0.37039,-2.500127 -0.37039,-4.537268 -0.23149,-5.324345 -0.27779,-5.370645 -0.37039,-3.611295 -0.55559,-4.213178 -0.0926,-1.851945 0.13889,-1.388962 0.2315,-1.34266 v -0.648182 l -0.32409,-2.453828 -1.57416,-5.046553 -1.43526,-3.796491 -1.34266,-3.3798 -0.13889,-1.990845 -0.92598,-1.66675 -1.43526,-2.916817 -2.45383,-3.102009 -2.36123,-3.009414 L 96.995681,36.761155 93.338086,33.890637 89.819387,32.038692 86.856274,31.020123 83.152382,30.279342 81.300436,30.09415 78.244724,29.908955 75.652,29.631161 h -1.481558 l -1.574154,-0.555583 -1.666751,-0.0926 -4.120581,0.185192 -3.981685,1.111168 -3.05571,1.574154 -4.583568,2.453831 -3.055712,2.592723 -2.546427,2.083441 -0.324088,0.32409 -3.148309,1.250064 -3.564998,1.898245 -2.407529,2.083441 -2.037141,3.287204 -1.296363,5.370645 -1.527855,4.583565 -1.018571,4.259476 -1.250064,3.148309 -1.064869,5.046554 -0.694481,4.166881 -0.370387,4.027982 v 3.981685 l 0.370387,2.777919 1.851946,5.648436 1.296363,3.84279 1.620454,5.185449 2.222336,5.926228 2.731619,6.25032 3.657595,6.62071 3.889086,6.01883 4.537268,5.46324 4.722464,5.18545 2.407531,2.03714 2.685322,2.77792 3.009413,2.91681 2.777919,2.40753 2.777918,2.96312 2.083441,2.63902 1.898245,3.10201 1.018571,2.22234 1.759347,4.35207 1.203767,3.88908 0.925973,4.53728 0.462986,5.00025 0.0926,2.36123 0.0926,4.16688 -0.694481,1.99084 -0.833377,1.11117 -0.462986,0.64818 -1.759347,0.92597 -1.944545,0.2778 h -1.296363 -1.481556 l -1.203766,-0.37039 -1.38896,-0.74078 -0.972272,-0.78708 -0.787077,-1.29636 -0.555583,-1.80565 0.0463,-6.7133 0.787077,-0.46299 1.250063,-0.64818 1.38896,-1.29636 0.833376,-1.11117 1.018569,-2.12974 0.324091,-2.77792 v -1.89824 l -0.740778,-2.31494 -0.787077,-2.45383 -1.944544,-3.10201 -1.851946,-1.66675 -1.388959,-0.87967 -1.296363,-0.60189 -1.342663,-0.0463 -1.111165,0.27779 -1.157468,0.69448 -0.833376,0.46298 -0.833374,0.1852 h -0.555586 l -0.787077,-0.0463 -1.250063,-0.23149 -0.740778,-0.1852 -1.111168,0.55559 -1.111168,0.37039 h -0.462987 l -1.759349,-0.37039 -1.944545,-0.46299 -4.352073,-0.64818 -2.916814,0.23149 -1.944544,1.11117 -1.481559,1.29636 -1.111168,1.20377 -0.787077,1.15746 -0.555582,1.75935 -0.555583,1.38896 -0.879676,0.0463 0.324091,3.565 -0.231492,0.32409 -0.787078,1.80565 -0.462986,1.38896 0.138896,1.29636 0.231492,1.20376 z"
       id="path1251" />
    <path
       style="fill:#ffffff;stroke:#f4d29c;stroke-width:0.264583px;stroke-linecap:butt;stroke-linejoin:miter;stroke-opacity:1"
       d="m 49.446965,158.7581 2.824218,-0.69448 3.055713,-0.55559 1.990841,-0.41669 1.481558,-0.0926 h 1.38896 1.296363 l 1.388959,0.46298 1.203764,0.55559 1.75935,1.01857 c 0,0 1.064868,0.69448 1.111168,0.92597 0.0463,0.2315 1.203764,1.38896 1.203764,1.38896 l 1.481558,2.22234 -0.0463,0.87967 v 1.85195 l -0.277792,1.38896 -0.555582,1.11117 -1.111168,1.38895 -1.111168,1.01858 c 0,0 -1.157468,0.55558 -1.342663,0.60188 -0.185195,0.0463 -2.870517,1.01857 -2.870517,1.01857 l -1.481556,0.37039 h -1.388959 l -0.787077,0.55558 -0.41669,1.25006 -0.462986,1.01858 -0.0463,2.26863 -0.41669,2.82422 -0.0926,2.68532 -0.416687,2.82422 -0.509286,2.54642 -0.648181,1.99085 -0.787078,2.03714 -1.111168,1.20376 -1.342659,0.69448 -1.435259,0.55559 -2.08344,-0.27779 -0.787078,-0.41669 -1.481558,-0.83338 -1.157465,-1.71305 -0.787077,-2.45383 -0.833376,-3.65759 -0.0926,-2.68532 v -6.75961 l -0.555585,-1.48156 -0.555583,-1.01856 -1.388959,-1.48156 -2.08344,-2.17604 -0.925973,-1.01857 -0.74078,-2.12974 0.0463,-2.17603 v -1.85195 l 0.648182,-1.75935 0.879673,-1.57415 1.111168,-1.20377 1.527858,-1.34266 1.388959,-0.92597 1.388959,-0.46299 h 1.388959 l 1.111168,0.18519 0.833377,0.46299 0.879673,0.60188 z"
       id="path1253" />
    <path
       style="fill:#ffffff;stroke:#f4d29c;stroke-width:0.264583px;stroke-linecap:butt;stroke-linejoin:miter;stroke-opacity:1"
       d="m 50.416666,97.494046 0.982144,0.589286 1.17857,0.392856 1.047618,-0.130951 h 0.785715 l 0.654761,0.392856 1.571429,0.523809 h 1.702382 l 1.636903,-0.851191 1.57143,-2.226188 0.654761,-3.79762 1.375,-6.482144 0.720238,-4.517855 1.440477,-4.059523 1.833335,-3.535715 1.833332,-1.964287 2.880953,-1.833333 4.059523,-0.392856 1.309523,0.916665 4.845238,2.291667 0.523809,1.047621 0.392858,2.357141 0.589286,3.732144 -0.130953,5.369046 1.375,5.17262 2.029761,3.142856 3.470238,2.553573 1.636906,-0.720238 1.505953,-0.458335 1.898808,0.458335 1.767859,1.505953 c 0,0 1.505953,1.113094 1.898809,1.309523 0.392856,0.196427 2.029758,1.440476 2.029758,1.440476 l 1.63691,1.636903 1.44048,1.04762 1.57142,1.11309 1.375,-0.2619 c 0,0 0.85119,-0.39286 1.1131,-0.58929 0.2619,-0.19642 1.375,-1.375 1.375,-1.375 l 1.50595,-1.898805 0.65476,-2.815476 -0.72024,-3.797617 -1.04762,-4.714288 -3.07738,-13.422619 -0.45833,-5.892856 -0.65476,-3.928573 -0.13095,-2.619047 -0.39286,-3.732141 -1.30952,-3.79762 -1.57143,-3.92857 -2.81548,-3.994049 -4.779761,-4.255953 -3.92857,-3.273809 L 86.297618,36.994046 81.059522,35.291667 76.214284,34.375 h -3.92857 l -5.107144,0.458332 -4.190476,1.113097 -6.285714,2.55357 -3.79762,2.42262 -4.452379,3.732141 -3.077382,3.077382 -2.291668,3.863094 -2.226188,4.255953 -2.291667,6.154761 -1.702382,6.482143 -0.654762,6.809523 0.06548,7.136906 0.392859,2.815476 1.047618,1.702382 1.17857,0.523809 0.06548,0.589285 0.458335,3.339285 1.244047,7.333334 1.767856,8.839287 2.553573,6.28571 2.226191,3.27381 2.226188,0.85119 1.833335,0.19643 2.291667,-0.72024 1.113094,-1.24404 0.654762,-2.09524 -0.327382,-2.42262 -1.70238,-3.53571 -1.440476,-3.01191 -0.982144,-3.99405 z"
       id="path1255" />
  </g>
</svg>
