<svg width="36" height="36" viewBox="0 0 36 36" fill="none" xmlns="http://www.w3.org/2000/svg">
<path d="M10 2H26V18H10V2ZM2 18H18V34H2V18ZM18 18H34V34H18V18Z" fill="white"/>
<path d="M18 18H2V34H18M18 18V34M18 18H34V34H18M10 2H26V18H10V2Z" stroke="white" stroke-width="3.2" stroke-linecap="round" stroke-linejoin="round"/>
<path d="M17.9998 6.79999V13.2M17.9998 6.79999L14.7998 9.99999M17.9998 6.79999L21.1998 9.99999M6.7998 26H13.1998M6.7998 26L9.9998 29.2M6.7998 26L9.9998 22.8M29.1998 26H22.7998M29.1998 26L25.9998 22.8M29.1998 26L25.9998 29.2" stroke="black" stroke-width="3.2" stroke-linecap="round" stroke-linejoin="round"/>
</svg>
