<svg width="32" height="32" viewBox="0 0 32 32" fill="none" xmlns="http://www.w3.org/2000/svg">
<path d="M10.8624 23V8.45455H16.4306C17.4817 8.45455 18.3553 8.62026 19.0513 8.9517C19.7521 9.27841 20.2753 9.72585 20.6209 10.294C20.9713 10.8622 21.1465 11.5062 21.1465 12.2259C21.1465 12.8177 21.0328 13.3243 20.8056 13.7457C20.5783 14.1624 20.2729 14.5009 19.8894 14.7614C19.5059 15.0218 19.0774 15.2088 18.6039 15.3224V15.4645C19.12 15.4929 19.6148 15.6515 20.0882 15.9403C20.5665 16.2244 20.9571 16.6269 21.2601 17.1477C21.5632 17.6686 21.7147 18.2983 21.7147 19.0369C21.7147 19.7898 21.5324 20.4669 21.1678 21.0682C20.8032 21.6648 20.254 22.1359 19.5201 22.4815C18.7862 22.8272 17.8629 23 16.7502 23H10.8624ZM13.4973 20.7983H16.3311C17.2876 20.7983 17.9765 20.616 18.3979 20.2514C18.824 19.8821 19.0371 19.4086 19.0371 18.831C19.0371 18.4001 18.9306 18.0118 18.7175 17.6662C18.5044 17.3158 18.2014 17.0412 17.8084 16.8423C17.4154 16.6387 16.9467 16.5369 16.4022 16.5369H13.4973V20.7983ZM13.4973 14.6406H16.1039C16.5584 14.6406 16.968 14.5578 17.3326 14.392C17.6971 14.2216 17.9836 13.9825 18.1919 13.6747C18.405 13.3622 18.5115 12.9929 18.5115 12.5668C18.5115 12.0033 18.3127 11.5393 17.915 11.1747C17.522 10.8101 16.9372 10.6278 16.1607 10.6278H13.4973V14.6406Z" fill="white"/>
<rect x="0.5" y="0.5" width="31" height="31" rx="3.5" stroke="white"/>
</svg>
