<svg width="32" height="32" viewBox="0 0 32 32" fill="none" xmlns="http://www.w3.org/2000/svg">
<path d="M22.4533 13.3622H19.7971C19.7213 12.9266 19.5816 12.5407 19.378 12.2045C19.1744 11.8636 18.9211 11.5748 18.6181 11.3381C18.315 11.1013 17.9694 10.9238 17.5811 10.8054C17.1976 10.6823 16.7833 10.6207 16.3382 10.6207C15.5475 10.6207 14.8468 10.8196 14.236 11.2173C13.6252 11.6103 13.147 12.188 12.8013 12.9503C12.4557 13.7079 12.2828 14.6335 12.2828 15.7273C12.2828 16.84 12.4557 17.7775 12.8013 18.5398C13.1517 19.2973 13.6299 19.8703 14.236 20.2585C14.8468 20.642 15.5452 20.8338 16.3311 20.8338C16.7667 20.8338 17.1739 20.777 17.5527 20.6634C17.9363 20.545 18.2795 20.3722 18.5826 20.1449C18.8903 19.9176 19.1484 19.6383 19.3567 19.3068C19.5698 18.9754 19.7166 18.5966 19.7971 18.1705L22.4533 18.1847C22.3539 18.8759 22.1384 19.5246 21.807 20.1307C21.4803 20.7367 21.0518 21.2718 20.5215 21.7358C19.9912 22.1951 19.3709 22.5549 18.6607 22.8153C17.9505 23.071 17.1621 23.1989 16.2956 23.1989C15.0172 23.1989 13.8761 22.9029 12.8723 22.3111C11.8685 21.7192 11.0778 20.8646 10.5002 19.7472C9.92253 18.6297 9.6337 17.2898 9.6337 15.7273C9.6337 14.16 9.92489 12.8201 10.5073 11.7074C11.0897 10.59 11.8828 9.73532 12.8865 9.14347C13.8903 8.55161 15.0267 8.25568 16.2956 8.25568C17.1053 8.25568 17.8581 8.36932 18.5542 8.59659C19.2502 8.82386 19.8704 9.15767 20.415 9.59801C20.9595 10.0336 21.4069 10.5687 21.7573 11.2031C22.1124 11.8329 22.3444 12.5526 22.4533 13.3622Z" fill="white"/>
<rect x="0.5" y="0.5" width="31" height="31" rx="3.5" stroke="white"/>
</svg>
