<svg width="32" height="32" viewBox="0 0 32 32" fill="none" xmlns="http://www.w3.org/2000/svg">
<path d="M15.1175 23H10.1886V8.45455H15.217C16.6611 8.45455 17.9016 8.74574 18.9386 9.32812C19.9802 9.90578 20.7804 10.7367 21.3391 11.821C21.8978 12.9053 22.1772 14.2027 22.1772 15.7131C22.1772 17.2282 21.8955 18.5303 21.332 19.6193C20.7733 20.7083 19.966 21.544 18.9102 22.1264C17.859 22.7088 16.5948 23 15.1175 23ZM12.8235 20.7202H14.9897C16.003 20.7202 16.8481 20.5355 17.5252 20.1662C18.2023 19.7921 18.7113 19.2358 19.0522 18.4972C19.3931 17.7538 19.5636 16.8258 19.5636 15.7131C19.5636 14.6004 19.3931 13.6771 19.0522 12.9432C18.7113 12.2045 18.207 11.6529 17.5394 11.2884C16.8765 10.919 16.0527 10.7344 15.0678 10.7344H12.8235V20.7202Z" fill="white"/>
<rect x="0.5" y="0.5" width="31" height="31" rx="3.5" stroke="white"/>
</svg>
