<svg width="32" height="32" viewBox="0 0 32 32" fill="none" xmlns="http://www.w3.org/2000/svg">
<path d="M19.6301 13.0994C19.5118 12.7159 19.3484 12.3726 19.1401 12.0696C18.9365 11.7618 18.6903 11.4991 18.4015 11.2812C18.1174 11.0634 17.7907 10.9001 17.4213 10.7912C17.052 10.6776 16.6496 10.6207 16.214 10.6207C15.4327 10.6207 14.7367 10.8172 14.1259 11.2102C13.5151 11.6032 13.0345 12.1809 12.6841 12.9432C12.3385 13.7008 12.1657 14.6241 12.1657 15.7131C12.1657 16.8116 12.3385 17.742 12.6841 18.5043C13.0298 19.2666 13.5104 19.8466 14.1259 20.2443C14.7414 20.6373 15.4564 20.8338 16.2708 20.8338C17.0094 20.8338 17.6486 20.6918 18.1884 20.4077C18.7329 20.1236 19.1519 19.7211 19.4455 19.2003C19.7391 18.6747 19.8858 18.0592 19.8858 17.3537L20.4824 17.446H16.5336V15.3864H22.4355V17.1335C22.4355 18.3788 22.1704 19.456 21.6401 20.3651C21.1098 21.2741 20.3806 21.9749 19.4526 22.4673C18.5246 22.955 17.4592 23.1989 16.2566 23.1989C14.9166 23.1989 13.74 22.8982 12.7267 22.2969C11.7182 21.6908 10.9299 20.8314 10.3617 19.7188C9.79824 18.6013 9.51651 17.2756 9.51651 15.7415C9.51651 14.5672 9.68223 13.5185 10.0137 12.5952C10.3498 11.6719 10.8186 10.8883 11.4199 10.2443C12.0212 9.59564 12.7267 9.10322 13.5364 8.76705C14.3461 8.42614 15.2267 8.25568 16.1784 8.25568C16.9834 8.25568 17.7338 8.37405 18.4299 8.6108C19.1259 8.8428 19.7438 9.17424 20.2836 9.60511C20.8281 10.036 21.2755 10.5473 21.6259 11.1392C21.9763 11.7311 22.2059 12.3845 22.3148 13.0994H19.6301Z" fill="white"/>
<rect x="0.5" y="0.5" width="31" height="31" rx="3.5" stroke="white"/>
</svg>
