<svg width="32" height="32" viewBox="0 0 32 32" fill="none" xmlns="http://www.w3.org/2000/svg">
<path d="M17.5678 8.45455H20.1815V18.6818C20.1767 19.6193 19.9779 20.4266 19.5849 21.1037C19.1919 21.776 18.6426 22.2945 17.9371 22.6591C17.2364 23.0189 16.4196 23.1989 15.4869 23.1989C14.6346 23.1989 13.8675 23.0473 13.1857 22.7443C12.5086 22.4366 11.9712 21.982 11.5735 21.3807C11.1758 20.7794 10.9769 20.0312 10.9769 19.1364H13.5977C13.6024 19.5294 13.6876 19.8679 13.8533 20.152C14.0238 20.4361 14.2582 20.6539 14.5565 20.8054C14.8548 20.9569 15.198 21.0327 15.5863 21.0327C16.0077 21.0327 16.3652 20.9451 16.6587 20.7699C16.9523 20.59 17.1748 20.3248 17.3263 19.9744C17.4826 19.6241 17.5631 19.1932 17.5678 18.6818V8.45455Z" fill="white"/>
<rect x="0.5" y="0.5" width="31" height="31" rx="3.5" stroke="white"/>
</svg>
