<svg width="32" height="32" viewBox="0 0 32 32" fill="none" xmlns="http://www.w3.org/2000/svg">
<path d="M22.6877 15.7273C22.6877 17.2945 22.3941 18.6368 21.807 19.7543C21.2246 20.867 20.4292 21.7192 19.4206 22.3111C18.4168 22.9029 17.2781 23.1989 16.0044 23.1989C14.7308 23.1989 13.5897 22.9029 12.5811 22.3111C11.5774 21.7145 10.7819 20.8598 10.1948 19.7472C9.61239 18.6297 9.3212 17.2898 9.3212 15.7273C9.3212 14.16 9.61239 12.8201 10.1948 11.7074C10.7819 10.59 11.5774 9.73532 12.5811 9.14347C13.5897 8.55161 14.7308 8.25568 16.0044 8.25568C17.2781 8.25568 18.4168 8.55161 19.4206 9.14347C20.4292 9.73532 21.2246 10.59 21.807 11.7074C22.3941 12.8201 22.6877 14.16 22.6877 15.7273ZM20.0385 15.7273C20.0385 14.6241 19.8657 13.6937 19.5201 12.9361C19.1792 12.1738 18.7057 11.5985 18.0996 11.2102C17.4935 10.8172 16.7952 10.6207 16.0044 10.6207C15.2137 10.6207 14.5153 10.8172 13.9093 11.2102C13.3032 11.5985 12.8274 12.1738 12.4817 12.9361C12.1408 13.6937 11.9703 14.6241 11.9703 15.7273C11.9703 16.8305 12.1408 17.7633 12.4817 18.5256C12.8274 19.2831 13.3032 19.8584 13.9093 20.2514C14.5153 20.6397 15.2137 20.8338 16.0044 20.8338C16.7952 20.8338 17.4935 20.6397 18.0996 20.2514C18.7057 19.8584 19.1792 19.2831 19.5201 18.5256C19.8657 17.7633 20.0385 16.8305 20.0385 15.7273Z" fill="white"/>
<rect x="0.5" y="0.5" width="31" height="31" rx="3.5" stroke="white"/>
</svg>
