<svg width="32" height="32" viewBox="0 0 32 32" fill="none" xmlns="http://www.w3.org/2000/svg">
<path d="M10.9991 23V8.45455H16.4537C17.5711 8.45455 18.5086 8.66288 19.2662 9.07955C20.0285 9.49621 20.6038 10.0691 20.992 10.7983C21.385 11.5227 21.5815 12.3466 21.5815 13.2699C21.5815 14.2027 21.385 15.0312 20.992 15.7557C20.599 16.4801 20.019 17.0507 19.252 17.4673C18.4849 17.8793 17.5403 18.0852 16.4181 18.0852H12.8031V15.919H16.063C16.7164 15.919 17.2515 15.8054 17.6681 15.5781C18.0848 15.3509 18.3926 15.0384 18.5914 14.6406C18.795 14.2429 18.8968 13.786 18.8968 13.2699C18.8968 12.7538 18.795 12.2992 18.5914 11.9062C18.3926 11.5133 18.0824 11.2079 17.661 10.9901C17.2444 10.7675 16.707 10.6562 16.0488 10.6562H13.6341V23H10.9991Z" fill="white"/>
<rect x="0.5" y="0.5" width="31" height="31" rx="3.5" stroke="white"/>
</svg>
