<svg width="32" height="32" viewBox="0 0 32 32" fill="none" xmlns="http://www.w3.org/2000/svg">
<path d="M15.0998 18.1136H17.4862L18.8995 19.946L19.908 21.1392L22.3299 24.25H19.7731L18.1254 22.1619L17.4222 21.1676L15.0998 18.1136ZM22.6779 15.7273C22.6779 17.2945 22.3844 18.6368 21.7972 19.7543C21.2148 20.867 20.4194 21.7192 19.4109 22.3111C18.4071 22.9029 17.2683 23.1989 15.9947 23.1989C14.721 23.1989 13.5799 22.9029 12.5714 22.3111C11.5676 21.7145 10.7721 20.8598 10.185 19.7472C9.60263 18.6297 9.31143 17.2898 9.31143 15.7273C9.31143 14.16 9.60263 12.8201 10.185 11.7074C10.7721 10.59 11.5676 9.73532 12.5714 9.14347C13.5799 8.55161 14.721 8.25568 15.9947 8.25568C17.2683 8.25568 18.4071 8.55161 19.4109 9.14347C20.4194 9.73532 21.2148 10.59 21.7972 11.7074C22.3844 12.8201 22.6779 14.16 22.6779 15.7273ZM20.0288 15.7273C20.0288 14.6241 19.8559 13.6937 19.5103 12.9361C19.1694 12.1738 18.6959 11.5985 18.0898 11.2102C17.4838 10.8172 16.7854 10.6207 15.9947 10.6207C15.204 10.6207 14.5056 10.8172 13.8995 11.2102C13.2934 11.5985 12.8176 12.1738 12.4719 12.9361C12.131 13.6937 11.9606 14.6241 11.9606 15.7273C11.9606 16.8305 12.131 17.7633 12.4719 18.5256C12.8176 19.2831 13.2934 19.8584 13.8995 20.2514C14.5056 20.6397 15.204 20.8338 15.9947 20.8338C16.7854 20.8338 17.4838 20.6397 18.0898 20.2514C18.6959 19.8584 19.1694 19.2831 19.5103 18.5256C19.8559 17.7633 20.0288 16.8305 20.0288 15.7273Z" fill="white"/>
<rect x="0.5" y="0.5" width="31" height="31" rx="3.5" stroke="white"/>
</svg>
