<svg width="32" height="32" viewBox="0 0 32 32" fill="none" xmlns="http://www.w3.org/2000/svg">
<path d="M10.9308 23V8.45455H16.3853C17.5027 8.45455 18.4402 8.64867 19.1978 9.03693C19.9601 9.42519 20.5354 9.9697 20.9237 10.6705C21.3166 11.3665 21.5131 12.1785 21.5131 13.1065C21.5131 14.0393 21.3143 14.849 20.9165 15.5355C20.5236 16.2173 19.9435 16.7453 19.1765 17.1193C18.4094 17.4886 17.4672 17.6733 16.3498 17.6733H12.4648V15.4858H15.9947C16.6481 15.4858 17.1831 15.3958 17.5998 15.2159C18.0165 15.0312 18.3242 14.7637 18.5231 14.4134C18.7267 14.0582 18.8285 13.6226 18.8285 13.1065C18.8285 12.5904 18.7267 12.1501 18.5231 11.7855C18.3195 11.4162 18.0094 11.1368 17.5927 10.9474C17.176 10.7533 16.6386 10.6562 15.9805 10.6562H13.5657V23H10.9308ZM18.445 16.4091L22.0458 23H19.1055L15.5685 16.4091H18.445Z" fill="white"/>
<rect x="0.5" y="0.5" width="31" height="31" rx="3.5" stroke="white"/>
</svg>
