<svg width="32" height="32" viewBox="0 0 32 32" fill="none" xmlns="http://www.w3.org/2000/svg">
<path d="M18.8453 12.4531C18.7791 11.8329 18.4997 11.3499 18.0073 11.0043C17.5196 10.6586 16.8851 10.4858 16.1039 10.4858C15.5546 10.4858 15.0835 10.5687 14.6905 10.7344C14.2975 10.9001 13.9969 11.125 13.7885 11.4091C13.5802 11.6932 13.4737 12.0175 13.4689 12.3821C13.4689 12.6851 13.5376 12.9479 13.6749 13.1705C13.8169 13.393 14.0087 13.5824 14.2502 13.7386C14.4917 13.8902 14.7592 14.018 15.0527 14.1222C15.3463 14.2263 15.6422 14.3139 15.9405 14.3849L17.3042 14.7259C17.8534 14.8537 18.3813 15.0265 18.888 15.2443C19.3993 15.4621 19.8562 15.7367 20.2587 16.0682C20.6659 16.3996 20.9879 16.7997 21.2246 17.2685C21.4614 17.7372 21.5797 18.2865 21.5797 18.9162C21.5797 19.7685 21.3619 20.5189 20.9263 21.1676C20.4907 21.8116 19.861 22.3158 19.0371 22.6804C18.218 23.0402 17.226 23.2202 16.0613 23.2202C14.9296 23.2202 13.9471 23.045 13.1138 22.6946C12.2852 22.3442 11.6365 21.8329 11.1678 21.1605C10.7038 20.4882 10.4528 19.669 10.415 18.7031H13.0073C13.0452 19.2098 13.2014 19.6312 13.476 19.9673C13.7507 20.3035 14.1081 20.5545 14.5485 20.7202C14.9935 20.8859 15.4907 20.9688 16.04 20.9688C16.6129 20.9688 17.1148 20.8835 17.5456 20.7131C17.9812 20.5379 18.3221 20.2964 18.5684 19.9886C18.8146 19.6761 18.94 19.3116 18.9448 18.8949C18.94 18.5161 18.8288 18.2036 18.611 17.9574C18.3932 17.7064 18.0878 17.4981 17.6948 17.3324C17.3065 17.1619 16.852 17.0104 16.3311 16.8778L14.6763 16.4517C13.4784 16.1439 12.5314 15.6776 11.8354 15.0526C11.1441 14.4228 10.7985 13.5871 10.7985 12.5455C10.7985 11.6884 11.0305 10.938 11.4945 10.294C11.9632 9.65009 12.6001 9.15057 13.405 8.79545C14.2099 8.43561 15.1214 8.25568 16.1394 8.25568C17.1716 8.25568 18.0759 8.43561 18.8525 8.79545C19.6337 9.15057 20.2469 9.64536 20.6919 10.2798C21.137 10.9096 21.3667 11.634 21.3809 12.4531H18.8453Z" fill="white"/>
<rect x="0.5" y="0.5" width="31" height="31" rx="3.5" stroke="white"/>
</svg>
