<svg width="32" height="32" viewBox="0 0 32 32" fill="none" xmlns="http://www.w3.org/2000/svg">
<path d="M19.2697 8.45455H21.9047V17.9574C21.9047 18.9991 21.6584 19.9152 21.166 20.706C20.6783 21.4967 19.9918 22.1146 19.1064 22.5597C18.2209 23 17.1864 23.2202 16.0027 23.2202C14.8142 23.2202 13.7773 23 12.8919 22.5597C12.0065 22.1146 11.3199 21.4967 10.8322 20.706C10.3445 19.9152 10.1007 18.9991 10.1007 17.9574V8.45455H12.7356V17.7372C12.7356 18.3433 12.8682 18.883 13.1333 19.3565C13.4032 19.83 13.782 20.2017 14.2697 20.4716C14.7574 20.7367 15.335 20.8693 16.0027 20.8693C16.6703 20.8693 17.2479 20.7367 17.7356 20.4716C18.228 20.2017 18.6068 19.83 18.872 19.3565C19.1371 18.883 19.2697 18.3433 19.2697 17.7372V8.45455Z" fill="white"/>
<rect x="0.5" y="0.5" width="31" height="31" rx="3.5" stroke="white"/>
</svg>
